  0
SECTION
  2
HEADER
  9
$ACADVER
  1
AC1014
  9
$HANDSEED
  5
FFFF
  9
$MEASUREMENT
 70
     1
  0
ENDSEC
  0
SECTION
  2
TABLES
  0
TABLE
  2
VPORT
  5
8
330
0
100
AcDbSymbolTable
 70
     4
  0
VPORT
  5
2E
330
8
100
AcDbSymbolTableRecord
100
AcDbViewportTableRecord
  2
*ACTIVE
 70
     0
 10
0.0
 20
0.0
 11
1.0
 21
1.0
 12
210.0
 22
148.5
 13
0.0
 23
0.0
 14
10.0
 24
10.0
 15
10.0
 25
10.0
 16
0.0
 26
0.0
 36
1.0
 17
0.0
 27
0.0
 37
0.0
 40
341.0
 41
1.24
 42
50.0
 43
0.0
 44
0.0
 50
0.0
 51
0.0
 71
     0
 72
   100
 73
     1
 74
     3
 75
     0
 76
     0
 77
     0
 78
     0
  0
ENDTAB
  0
TABLE
  2
LTYPE
  5
5
330
0
100
AcDbSymbolTable
 70
     1
  0
LTYPE
  5
14
330
5
100
AcDbSymbolTableRecord
100
AcDbLinetypeTableRecord
  2
BYBLOCK
 70
     0
  3

 72
    65
 73
     0
 40
0.0
  0
LTYPE
  5
15
330
5
100
AcDbSymbolTableRecord
100
AcDbLinetypeTableRecord
  2
BYLAYER
 70
     0
  3

 72
    65
 73
     0
 40
0.0
  0
LTYPE
  5
16
330
5
100
AcDbSymbolTableRecord
100
AcDbLinetypeTableRecord
  2
CONTINUOUS
 70
     0
  3
Solid line
 72
    65
 73
     0
 40
0.0
  0
ENDTAB
  0
TABLE
  2
LAYER
  5
2
100
AcDbSymbolTable
 70
1
  0
LAYER
  5
50
100
AcDbSymbolTableRecord
100
AcDbLayerTableRecord
  2
0
 70
0
  6
CONTINUOUS
  0
ENDTAB
  0
TABLE
  2
STYLE
  5
3
330
0
100
AcDbSymbolTable
 70
     1
  0
STYLE
  5
11
330
3
100
AcDbSymbolTableRecord
100
AcDbTextStyleTableRecord
  2
STANDARD
 70
     0
 40
0.0
 41
1.0
 50
0.0
 71
     0
 42
2.5
  3
txt
  4

  0
ENDTAB
  0
TABLE
  2
VIEW
  5
6
330
0
100
AcDbSymbolTable
 70
     0
  0
ENDTAB
  0
TABLE
  2
UCS
  5
7
330
0
100
AcDbSymbolTable
 70
     0
  0
ENDTAB
  0
TABLE
  2
APPID
  5
9
330
0
100
AcDbSymbolTable
 70
     2
  0
APPID
  5
12
330
9
100
AcDbSymbolTableRecord
100
AcDbRegAppTableRecord
  2
ACAD
 70
     0
  0
ENDTAB
  0
TABLE
  2
DIMSTYLE
  5
A
330
0
100
AcDbSymbolTable
 70
     1
  0
DIMSTYLE
105
27
330
A
100
AcDbSymbolTableRecord
100
AcDbDimStyleTableRecord
  2
ISO-25
 70
     0
  3

  4

  5

  6

  7

 40
1.0
 41
2.5
 42
0.625
 43
3.75
 44
1.25
 45
0.0
 46
0.0
 47
0.0
 48
0.0
140
2.5
141
2.5
142
0.0
143
0.03937007874016
144
1.0
145
0.0
146
1.0
147
0.625
 71
     0
 72
     0
 73
     0
 74
     0
 75
     0
 76
     0
 77
     1
 78
     8
170
     0
171
     3
172
     1
173
     0
174
     0
175
     0
176
     0
177
     0
178
     0
270
     2
271
     2
272
     2
273
     2
274
     3
340
11
275
     0
280
     0
281
     0
282
     0
283
     0
284
     8
285
     0
286
     0
287
     3
288
     0
  0
ENDTAB
  0
TABLE
  2
BLOCK_RECORD
  5
1
330
0
100
AcDbSymbolTable
 70
     1
  0
BLOCK_RECORD
  5
1F
330
1
100
AcDbSymbolTableRecord
100
AcDbBlockTableRecord
  2
*MODEL_SPACE
  0
BLOCK_RECORD
  5
1B
330
1
100
AcDbSymbolTableRecord
100
AcDbBlockTableRecord
  2
*PAPER_SPACE
  0
ENDTAB
  0
ENDSEC
  0
SECTION
  2
BLOCKS
  0
BLOCK
  5
20
330
1F
100
AcDbEntity
  8
0
100
AcDbBlockBegin
  2
*MODEL_SPACE
 70
     0
 10
0.0
 20
0.0
 30
0.0
  3
*MODEL_SPACE
  1

  0
ENDBLK
  5
21
330
1F
100
AcDbEntity
  8
0
100
AcDbBlockEnd
  0
BLOCK
  5
1C
330
1B
100
AcDbEntity
 67
     1
  8
0
100
AcDbBlockBegin
  2
*PAPER_SPACE
  1

  0
ENDBLK
  5
1D
330
1B
100
AcDbEntity
 67
     1
  8
0
100
AcDbBlockEnd
  0
ENDSEC
  0
SECTION
  2
ENTITIES
  0
SPLINE
  5
100
100
AcDbEntity
  8
0
 62
7
100
AcDbSpline
 70
8
 71
3
 72
8
 73
4
 74
0
 40
0
 40
0
 40
0
 40
0
 40
1
 40
1
 40
1
 40
1
 10
78.606650
 20
-27.891915
 30
0.0
 10
77.999957
 20
-27.891915
 30
0.0
 10
77.453003
 20
-28.257378
 30
0.0
 10
77.220831
 20
-28.817890
 30
0.0
  0
SPLINE
  5
101
100
AcDbEntity
  8
0
 62
7
100
AcDbSpline
 70
8
 71
3
 72
8
 73
4
 74
0
 40
0
 40
0
 40
0
 40
0
 40
1
 40
1
 40
1
 40
1
 10
77.220831
 20
-28.817890
 30
0.0
 10
76.988660
 20
-29.378401
 30
0.0
 10
77.116993
 20
-30.023578
 30
0.0
 10
77.545990
 20
-30.452575
 30
0.0
  0
SPLINE
  5
102
100
AcDbEntity
  8
0
 62
7
100
AcDbSpline
 70
8
 71
3
 72
8
 73
4
 74
0
 40
0
 40
0
 40
0
 40
0
 40
1
 40
1
 40
1
 40
1
 10
77.545990
 20
-30.452575
 30
0.0
 10
77.974987
 20
-30.881572
 30
0.0
 10
78.620164
 20
-31.009905
 30
0.0
 10
79.180675
 20
-30.777734
 30
0.0
  0
SPLINE
  5
103
100
AcDbEntity
  8
0
 62
7
100
AcDbSpline
 70
8
 71
3
 72
8
 73
4
 74
0
 40
0
 40
0
 40
0
 40
0
 40
1
 40
1
 40
1
 40
1
 10
79.180675
 20
-30.777734
 30
0.0
 10
79.741186
 20
-30.545562
 30
0.0
 10
80.106650
 20
-29.998608
 30
0.0
 10
80.106650
 20
-29.391915
 30
0.0
  0
SPLINE
  5
104
100
AcDbEntity
  8
0
 62
7
100
AcDbSpline
 70
8
 71
3
 72
8
 73
4
 74
0
 40
0
 40
0
 40
0
 40
0
 40
1
 40
1
 40
1
 40
1
 10
80.106650
 20
-29.391915
 30
0.0
 10
80.106650
 20
-28.994090
 30
0.0
 10
79.948614
 20
-28.612559
 30
0.0
 10
79.667310
 20
-28.331255
 30
0.0
  0
SPLINE
  5
105
100
AcDbEntity
  8
0
 62
7
100
AcDbSpline
 70
8
 71
3
 72
8
 73
4
 74
0
 40
0
 40
0
 40
0
 40
0
 40
1
 40
1
 40
1
 40
1
 10
79.667310
 20
-28.331255
 30
0.0
 10
79.386005
 20
-28.049950
 30
0.0
 10
79.004475
 20
-27.891915
 30
0.0
 10
78.606650
 20
-27.891915
 30
0.0
  0
LWPOLYLINE
  5
106
100
AcDbEntity
  8
0
 62
7
100
AcDbPolyline
 90
1
 70
1
 10
78.606650
 20
-27.891915
 30
0.0
  0
LWPOLYLINE
  5
107
100
AcDbEntity
  8
0
 62
7
100
AcDbPolyline
 90
2
 70
0
 10
13.906500
 20
0.972007
 30
0.0
 10
7.167880
 20
0.969467
 30
0.0
  0
LWPOLYLINE
  5
108
100
AcDbEntity
  8
0
 62
7
100
AcDbPolyline
 90
2
 70
0
 10
14.907260
 20
-0.028753
 30
0.0
 10
14.907260
 20
-38.916153
 30
0.0
  0
LWPOLYLINE
  5
109
100
AcDbEntity
  8
0
 62
7
100
AcDbPolyline
 90
2
 70
0
 10
37.528500
 20
-38.916153
 30
0.0
 10
37.525960
 20
-0.028753
 30
0.0
  0
SPLINE
  5
10a
100
AcDbEntity
  8
0
 62
7
100
AcDbSpline
 70
8
 71
3
 72
8
 73
4
 74
0
 40
0
 40
0
 40
0
 40
0
 40
1
 40
1
 40
1
 40
1
 10
236.364272
 20
-15.244940
 30
0.0
 10
235.939587
 20
-15.244940
 30
0.0
 10
235.556720
 20
-15.500764
 30
0.0
 10
235.394200
 20
-15.893121
 30
0.0
  0
SPLINE
  5
10b
100
AcDbEntity
  8
0
 62
7
100
AcDbSpline
 70
8
 71
3
 72
8
 73
4
 74
0
 40
0
 40
0
 40
0
 40
0
 40
1
 40
1
 40
1
 40
1
 10
235.394200
 20
-15.893121
 30
0.0
 10
235.231681
 20
-16.285479
 30
0.0
 10
235.321514
 20
-16.737102
 30
0.0
 10
235.621811
 20
-17.037399
 30
0.0
  0
SPLINE
  5
10c
100
AcDbEntity
  8
0
 62
7
100
AcDbSpline
 70
8
 71
3
 72
8
 73
4
 74
0
 40
0
 40
0
 40
0
 40
0
 40
1
 40
1
 40
1
 40
1
 10
235.621811
 20
-17.037399
 30
0.0
 10
235.922109
 20
-17.337696
 30
0.0
 10
236.373731
 20
-17.427529
 30
0.0
 10
236.766089
 20
-17.265010
 30
0.0
  0
SPLINE
  5
10d
100
AcDbEntity
  8
0
 62
7
100
AcDbSpline
 70
8
 71
3
 72
8
 73
4
 74
0
 40
0
 40
0
 40
0
 40
0
 40
1
 40
1
 40
1
 40
1
 10
236.766089
 20
-17.265010
 30
0.0
 10
237.158446
 20
-17.102490
 30
0.0
 10
237.414270
 20
-16.719623
 30
0.0
 10
237.414270
 20
-16.294938
 30
0.0
  0
SPLINE
  5
10e
100
AcDbEntity
  8
0
 62
7
100
AcDbSpline
 70
8
 71
3
 72
8
 73
4
 74
0
 40
0
 40
0
 40
0
 40
0
 40
1
 40
1
 40
1
 40
1
 10
237.414270
 20
-16.294938
 30
0.0
 10
237.414270
 20
-16.016461
 30
0.0
 10
237.303645
 20
-15.749390
 30
0.0
 10
237.106733
 20
-15.552478
 30
0.0
  0
SPLINE
  5
10f
100
AcDbEntity
  8
0
 62
7
100
AcDbSpline
 70
8
 71
3
 72
8
 73
4
 74
0
 40
0
 40
0
 40
0
 40
0
 40
1
 40
1
 40
1
 40
1
 10
237.106733
 20
-15.552478
 30
0.0
 10
236.909820
 20
-15.355565
 30
0.0
 10
236.642749
 20
-15.244940
 30
0.0
 10
236.364272
 20
-15.244940
 30
0.0
  0
LWPOLYLINE
  5
110
100
AcDbEntity
  8
0
 62
7
100
AcDbPolyline
 90
2
 70
0
 10
14.907260
 20
-38.916153
 30
0.0
 10
37.528500
 20
-38.916153
 30
0.0
  0
SPLINE
  5
111
100
AcDbEntity
  8
0
 62
7
100
AcDbSpline
 70
8
 71
3
 72
8
 73
4
 74
0
 40
0
 40
0
 40
0
 40
0
 40
1
 40
1
 40
1
 40
1
 10
44.673520
 20
-15.244938
 30
0.0
 10
44.248834
 20
-15.244938
 30
0.0
 10
43.865966
 20
-15.500762
 30
0.0
 10
43.703446
 20
-15.893120
 30
0.0
  0
SPLINE
  5
112
100
AcDbEntity
  8
0
 62
7
100
AcDbSpline
 70
8
 71
3
 72
8
 73
4
 74
0
 40
0
 40
0
 40
0
 40
0
 40
1
 40
1
 40
1
 40
1
 10
43.703446
 20
-15.893120
 30
0.0
 10
43.540926
 20
-16.285479
 30
0.0
 10
43.630760
 20
-16.737103
 30
0.0
 10
43.931058
 20
-17.037401
 30
0.0
  0
SPLINE
  5
113
100
AcDbEntity
  8
0
 62
7
100
AcDbSpline
 70
8
 71
3
 72
8
 73
4
 74
0
 40
0
 40
0
 40
0
 40
0
 40
1
 40
1
 40
1
 40
1
 10
43.931058
 20
-17.037401
 30
0.0
 10
44.231356
 20
-17.337699
 30
0.0
 10
44.682979
 20
-17.427532
 30
0.0
 10
45.075338
 20
-17.265012
 30
0.0
  0
SPLINE
  5
114
100
AcDbEntity
  8
0
 62
7
100
AcDbSpline
 70
8
 71
3
 72
8
 73
4
 74
0
 40
0
 40
0
 40
0
 40
0
 40
1
 40
1
 40
1
 40
1
 10
45.075338
 20
-17.265012
 30
0.0
 10
45.467696
 20
-17.102492
 30
0.0
 10
45.723520
 20
-16.719624
 30
0.0
 10
45.723520
 20
-16.294938
 30
0.0
  0
SPLINE
  5
115
100
AcDbEntity
  8
0
 62
7
100
AcDbSpline
 70
8
 71
3
 72
8
 73
4
 74
0
 40
0
 40
0
 40
0
 40
0
 40
1
 40
1
 40
1
 40
1
 10
45.723520
 20
-16.294938
 30
0.0
 10
45.723520
 20
-16.016461
 30
0.0
 10
45.612896
 20
-15.749389
 30
0.0
 10
45.415982
 20
-15.552476
 30
0.0
  0
SPLINE
  5
116
100
AcDbEntity
  8
0
 62
7
100
AcDbSpline
 70
8
 71
3
 72
8
 73
4
 74
0
 40
0
 40
0
 40
0
 40
0
 40
1
 40
1
 40
1
 40
1
 10
45.415982
 20
-15.552476
 30
0.0
 10
45.219069
 20
-15.355562
 30
0.0
 10
44.951997
 20
-15.244938
 30
0.0
 10
44.673520
 20
-15.244938
 30
0.0
  0
LWPOLYLINE
  5
117
100
AcDbEntity
  8
0
 62
7
100
AcDbPolyline
 90
1
 70
1
 10
236.364272
 20
-15.244940
 30
0.0
  0
SPLINE
  5
118
100
AcDbEntity
  8
0
 62
7
100
AcDbSpline
 70
8
 71
3
 72
8
 73
4
 74
0
 40
0
 40
0
 40
0
 40
0
 40
1
 40
1
 40
1
 40
1
 10
273.273520
 20
-15.244938
 30
0.0
 10
272.848834
 20
-15.244938
 30
0.0
 10
272.465966
 20
-15.500762
 30
0.0
 10
272.303446
 20
-15.893120
 30
0.0
  0
SPLINE
  5
119
100
AcDbEntity
  8
0
 62
7
100
AcDbSpline
 70
8
 71
3
 72
8
 73
4
 74
0
 40
0
 40
0
 40
0
 40
0
 40
1
 40
1
 40
1
 40
1
 10
272.303446
 20
-15.893120
 30
0.0
 10
272.140926
 20
-16.285479
 30
0.0
 10
272.230760
 20
-16.737103
 30
0.0
 10
272.531058
 20
-17.037401
 30
0.0
  0
SPLINE
  5
11a
100
AcDbEntity
  8
0
 62
7
100
AcDbSpline
 70
8
 71
3
 72
8
 73
4
 74
0
 40
0
 40
0
 40
0
 40
0
 40
1
 40
1
 40
1
 40
1
 10
272.531058
 20
-17.037401
 30
0.0
 10
272.831356
 20
-17.337699
 30
0.0
 10
273.282979
 20
-17.427532
 30
0.0
 10
273.675338
 20
-17.265012
 30
0.0
  0
SPLINE
  5
11b
100
AcDbEntity
  8
0
 62
7
100
AcDbSpline
 70
8
 71
3
 72
8
 73
4
 74
0
 40
0
 40
0
 40
0
 40
0
 40
1
 40
1
 40
1
 40
1
 10
273.675338
 20
-17.265012
 30
0.0
 10
274.067696
 20
-17.102492
 30
0.0
 10
274.323520
 20
-16.719624
 30
0.0
 10
274.323520
 20
-16.294938
 30
0.0
  0
SPLINE
  5
11c
100
AcDbEntity
  8
0
 62
7
100
AcDbSpline
 70
8
 71
3
 72
8
 73
4
 74
0
 40
0
 40
0
 40
0
 40
0
 40
1
 40
1
 40
1
 40
1
 10
274.323520
 20
-16.294938
 30
0.0
 10
274.323520
 20
-15.715039
 30
0.0
 10
273.853419
 20
-15.244938
 30
0.0
 10
273.273520
 20
-15.244938
 30
0.0
  0
LWPOLYLINE
  5
11d
100
AcDbEntity
  8
0
 62
7
100
AcDbPolyline
 90
1
 70
1
 10
44.673520
 20
-15.244938
 30
0.0
  0
SPLINE
  5
11e
100
AcDbEntity
  8
0
 62
7
100
AcDbSpline
 70
8
 71
3
 72
8
 73
4
 74
0
 40
0
 40
0
 40
0
 40
0
 40
1
 40
1
 40
1
 40
1
 10
7.764069
 20
-15.244938
 30
0.0
 10
7.339383
 20
-15.244938
 30
0.0
 10
6.956515
 20
-15.500762
 30
0.0
 10
6.793995
 20
-15.893120
 30
0.0
  0
SPLINE
  5
11f
100
AcDbEntity
  8
0
 62
7
100
AcDbSpline
 70
8
 71
3
 72
8
 73
4
 74
0
 40
0
 40
0
 40
0
 40
0
 40
1
 40
1
 40
1
 40
1
 10
6.793995
 20
-15.893120
 30
0.0
 10
6.631475
 20
-16.285479
 30
0.0
 10
6.721308
 20
-16.737103
 30
0.0
 10
7.021606
 20
-17.037401
 30
0.0
  0
SPLINE
  5
120
100
AcDbEntity
  8
0
 62
7
100
AcDbSpline
 70
8
 71
3
 72
8
 73
4
 74
0
 40
0
 40
0
 40
0
 40
0
 40
1
 40
1
 40
1
 40
1
 10
7.021606
 20
-17.037401
 30
0.0
 10
7.321904
 20
-17.337699
 30
0.0
 10
7.773528
 20
-17.427532
 30
0.0
 10
8.165887
 20
-17.265012
 30
0.0
  0
SPLINE
  5
121
100
AcDbEntity
  8
0
 62
7
100
AcDbSpline
 70
8
 71
3
 72
8
 73
4
 74
0
 40
0
 40
0
 40
0
 40
0
 40
1
 40
1
 40
1
 40
1
 10
8.165887
 20
-17.265012
 30
0.0
 10
8.558245
 20
-17.102492
 30
0.0
 10
8.814069
 20
-16.719624
 30
0.0
 10
8.814069
 20
-16.294938
 30
0.0
  0
SPLINE
  5
122
100
AcDbEntity
  8
0
 62
7
100
AcDbSpline
 70
8
 71
3
 72
8
 73
4
 74
0
 40
0
 40
0
 40
0
 40
0
 40
1
 40
1
 40
1
 40
1
 10
8.814069
 20
-16.294938
 30
0.0
 10
8.814069
 20
-16.016461
 30
0.0
 10
8.703445
 20
-15.749389
 30
0.0
 10
8.506531
 20
-15.552476
 30
0.0
  0
SPLINE
  5
123
100
AcDbEntity
  8
0
 62
7
100
AcDbSpline
 70
8
 71
3
 72
8
 73
4
 74
0
 40
0
 40
0
 40
0
 40
0
 40
1
 40
1
 40
1
 40
1
 10
8.506531
 20
-15.552476
 30
0.0
 10
8.309618
 20
-15.355562
 30
0.0
 10
8.042546
 20
-15.244938
 30
0.0
 10
7.764069
 20
-15.244938
 30
0.0
  0
LWPOLYLINE
  5
124
100
AcDbEntity
  8
0
 62
7
100
AcDbPolyline
 90
1
 70
1
 10
273.273520
 20
-15.244938
 30
0.0
  0
SPLINE
  5
125
100
AcDbEntity
  8
0
 62
7
100
AcDbSpline
 70
8
 71
3
 72
8
 73
4
 74
0
 40
0
 40
0
 40
0
 40
0
 40
1
 40
1
 40
1
 40
1
 10
0.025001
 20
-95.471539
 30
0.0
 10
0.025001
 20
-97.366182
 30
0.0
 10
0.777646
 20
-99.183226
 30
0.0
 10
2.117363
 20
-100.522939
 30
0.0
  0
SPLINE
  5
126
100
AcDbEntity
  8
0
 62
7
100
AcDbSpline
 70
8
 71
3
 72
8
 73
4
 74
0
 40
0
 40
0
 40
0
 40
0
 40
1
 40
1
 40
1
 40
1
 10
2.117363
 20
-100.522939
 30
0.0
 10
3.457080
 20
-101.862653
 30
0.0
 10
5.274126
 20
-102.615294
 30
0.0
 10
7.168769
 20
-102.615289
 30
0.0
  0
SPLINE
  5
127
100
AcDbEntity
  8
0
 62
7
100
AcDbSpline
 70
8
 71
3
 72
8
 73
4
 74
0
 40
0
 40
0
 40
0
 40
0
 40
1
 40
1
 40
1
 40
1
 10
281.012900
 20
-6.174613
 30
0.0
 10
281.012902
 20
-4.279751
 30
0.0
 10
280.260086
 20
-2.462516
 30
0.0
 10
278.920098
 20
-1.122765
 30
0.0
  0
SPLINE
  5
128
100
AcDbEntity
  8
0
 62
7
100
AcDbSpline
 70
8
 71
3
 72
8
 73
4
 74
0
 40
0
 40
0
 40
0
 40
0
 40
1
 40
1
 40
1
 40
1
 10
278.920098
 20
-1.122765
 30
0.0
 10
277.580110
 20
0.216987
 30
0.0
 10
275.762742
 20
0.969482
 30
0.0
 10
273.867880
 20
0.969145
 30
0.0
  0
SPLINE
  5
129
100
AcDbEntity
  8
0
 62
7
100
AcDbSpline
 70
8
 71
3
 72
8
 73
4
 74
0
 40
0
 40
0
 40
0
 40
0
 40
1
 40
1
 40
1
 40
1
 10
7.168769
 20
-3.524606
 30
0.0
 10
6.096941
 20
-3.524606
 30
0.0
 10
5.130652
 20
-4.170259
 30
0.0
 10
4.720481
 20
-5.160499
 30
0.0
  0
SPLINE
  5
12a
100
AcDbEntity
  8
0
 62
7
100
AcDbSpline
 70
8
 71
3
 72
8
 73
4
 74
0
 40
0
 40
0
 40
0
 40
0
 40
1
 40
1
 40
1
 40
1
 10
4.720481
 20
-5.160499
 30
0.0
 10
4.310311
 20
-6.150739
 30
0.0
 10
4.537034
 20
-7.290554
 30
0.0
 10
5.294931
 20
-8.048451
 30
0.0
  0
SPLINE
  5
12b
100
AcDbEntity
  8
0
 62
7
100
AcDbSpline
 70
8
 71
3
 72
8
 73
4
 74
0
 40
0
 40
0
 40
0
 40
0
 40
1
 40
1
 40
1
 40
1
 10
5.294931
 20
-8.048451
 30
0.0
 10
6.052828
 20
-8.806348
 30
0.0
 10
7.192643
 20
-9.033071
 30
0.0
 10
8.182883
 20
-8.622901
 30
0.0
  0
SPLINE
  5
12c
100
AcDbEntity
  8
0
 62
7
100
AcDbSpline
 70
8
 71
3
 72
8
 73
4
 74
0
 40
0
 40
0
 40
0
 40
0
 40
1
 40
1
 40
1
 40
1
 10
8.182883
 20
-8.622901
 30
0.0
 10
9.173123
 20
-8.212730
 30
0.0
 10
9.818776
 20
-7.246441
 30
0.0
 10
9.818776
 20
-6.174613
 30
0.0
  0
SPLINE
  5
12d
100
AcDbEntity
  8
0
 62
7
100
AcDbSpline
 70
8
 71
3
 72
8
 73
4
 74
0
 40
0
 40
0
 40
0
 40
0
 40
1
 40
1
 40
1
 40
1
 10
9.818776
 20
-6.174613
 30
0.0
 10
9.818776
 20
-5.471787
 30
0.0
 10
9.539580
 20
-4.797748
 30
0.0
 10
9.042607
 20
-4.300775
 30
0.0
  0
SPLINE
  5
12e
100
AcDbEntity
  8
0
 62
7
100
AcDbSpline
 70
8
 71
3
 72
8
 73
4
 74
0
 40
0
 40
0
 40
0
 40
0
 40
1
 40
1
 40
1
 40
1
 10
9.042607
 20
-4.300775
 30
0.0
 10
8.545634
 20
-3.803802
 30
0.0
 10
7.871595
 20
-3.524606
 30
0.0
 10
7.168769
 20
-3.524606
 30
0.0
  0
LWPOLYLINE
  5
12f
100
AcDbEntity
  8
0
 62
7
100
AcDbPolyline
 90
1
 70
1
 10
7.764069
 20
-15.244938
 30
0.0
  0
SPLINE
  5
130
100
AcDbEntity
  8
0
 62
7
100
AcDbSpline
 70
8
 71
3
 72
8
 73
4
 74
0
 40
0
 40
0
 40
0
 40
0
 40
1
 40
1
 40
1
 40
1
 10
185.167270
 20
-92.821531
 30
0.0
 10
184.095442
 20
-92.821531
 30
0.0
 10
183.129153
 20
-93.467185
 30
0.0
 10
182.718982
 20
-94.457425
 30
0.0
  0
SPLINE
  5
131
100
AcDbEntity
  8
0
 62
7
100
AcDbSpline
 70
8
 71
3
 72
8
 73
4
 74
0
 40
0
 40
0
 40
0
 40
0
 40
1
 40
1
 40
1
 40
1
 10
182.718982
 20
-94.457425
 30
0.0
 10
182.308812
 20
-95.447665
 30
0.0
 10
182.535535
 20
-96.587480
 30
0.0
 10
183.293432
 20
-97.345377
 30
0.0
  0
SPLINE
  5
132
100
AcDbEntity
  8
0
 62
7
100
AcDbSpline
 70
8
 71
3
 72
8
 73
4
 74
0
 40
0
 40
0
 40
0
 40
0
 40
1
 40
1
 40
1
 40
1
 10
183.293432
 20
-97.345377
 30
0.0
 10
184.051329
 20
-98.103274
 30
0.0
 10
185.191144
 20
-98.329997
 30
0.0
 10
186.181384
 20
-97.919826
 30
0.0
  0
SPLINE
  5
133
100
AcDbEntity
  8
0
 62
7
100
AcDbSpline
 70
8
 71
3
 72
8
 73
4
 74
0
 40
0
 40
0
 40
0
 40
0
 40
1
 40
1
 40
1
 40
1
 10
186.181384
 20
-97.919826
 30
0.0
 10
187.171624
 20
-97.509656
 30
0.0
 10
187.817277
 20
-96.543367
 30
0.0
 10
187.817277
 20
-95.471539
 30
0.0
  0
SPLINE
  5
134
100
AcDbEntity
  8
0
 62
7
100
AcDbSpline
 70
8
 71
3
 72
8
 73
4
 74
0
 40
0
 40
0
 40
0
 40
0
 40
1
 40
1
 40
1
 40
1
 10
187.817277
 20
-95.471539
 30
0.0
 10
187.817277
 20
-94.768713
 30
0.0
 10
187.538081
 20
-94.094673
 30
0.0
 10
187.041108
 20
-93.597701
 30
0.0
  0
SPLINE
  5
135
100
AcDbEntity
  8
0
 62
7
100
AcDbSpline
 70
8
 71
3
 72
8
 73
4
 74
0
 40
0
 40
0
 40
0
 40
0
 40
1
 40
1
 40
1
 40
1
 10
187.041108
 20
-93.597701
 30
0.0
 10
186.544135
 20
-93.100728
 30
0.0
 10
185.870096
 20
-92.821531
 30
0.0
 10
185.167270
 20
-92.821531
 30
0.0
  0
LWPOLYLINE
  5
136
100
AcDbEntity
  8
0
 62
7
100
AcDbPolyline
 90
1
 70
1
 10
7.168769
 20
-3.524606
 30
0.0
  0
SPLINE
  5
137
100
AcDbEntity
  8
0
 62
7
100
AcDbSpline
 70
8
 71
3
 72
8
 73
4
 74
0
 40
0
 40
0
 40
0
 40
0
 40
1
 40
1
 40
1
 40
1
 10
95.870268
 20
-3.524606
 30
0.0
 10
94.798440
 20
-3.524606
 30
0.0
 10
93.832151
 20
-4.170259
 30
0.0
 10
93.421980
 20
-5.160499
 30
0.0
  0
SPLINE
  5
138
100
AcDbEntity
  8
0
 62
7
100
AcDbSpline
 70
8
 71
3
 72
8
 73
4
 74
0
 40
0
 40
0
 40
0
 40
0
 40
1
 40
1
 40
1
 40
1
 10
93.421980
 20
-5.160499
 30
0.0
 10
93.011810
 20
-6.150739
 30
0.0
 10
93.238533
 20
-7.290554
 30
0.0
 10
93.996430
 20
-8.048451
 30
0.0
  0
SPLINE
  5
139
100
AcDbEntity
  8
0
 62
7
100
AcDbSpline
 70
8
 71
3
 72
8
 73
4
 74
0
 40
0
 40
0
 40
0
 40
0
 40
1
 40
1
 40
1
 40
1
 10
93.996430
 20
-8.048451
 30
0.0
 10
94.754327
 20
-8.806348
 30
0.0
 10
95.894142
 20
-9.033071
 30
0.0
 10
96.884382
 20
-8.622901
 30
0.0
  0
SPLINE
  5
13a
100
AcDbEntity
  8
0
 62
7
100
AcDbSpline
 70
8
 71
3
 72
8
 73
4
 74
0
 40
0
 40
0
 40
0
 40
0
 40
1
 40
1
 40
1
 40
1
 10
96.884382
 20
-8.622901
 30
0.0
 10
97.874622
 20
-8.212730
 30
0.0
 10
98.520275
 20
-7.246441
 30
0.0
 10
98.520275
 20
-6.174613
 30
0.0
  0
SPLINE
  5
13b
100
AcDbEntity
  8
0
 62
7
100
AcDbSpline
 70
8
 71
3
 72
8
 73
4
 74
0
 40
0
 40
0
 40
0
 40
0
 40
1
 40
1
 40
1
 40
1
 10
98.520275
 20
-6.174613
 30
0.0
 10
98.520275
 20
-4.711054
 30
0.0
 10
97.333827
 20
-3.524606
 30
0.0
 10
95.870268
 20
-3.524606
 30
0.0
  0
LWPOLYLINE
  5
13c
100
AcDbEntity
  8
0
 62
7
100
AcDbPolyline
 90
1
 70
1
 10
185.167270
 20
-92.821531
 30
0.0
  0
SPLINE
  5
13d
100
AcDbEntity
  8
0
 62
7
100
AcDbSpline
 70
8
 71
3
 72
8
 73
4
 74
0
 40
0
 40
0
 40
0
 40
0
 40
1
 40
1
 40
1
 40
1
 10
273.867880
 20
-102.615289
 30
0.0
 10
275.762740
 20
-102.615626
 30
0.0
 10
277.580107
 20
-101.863131
 30
0.0
 10
278.920095
 20
-100.523382
 30
0.0
  0
SPLINE
  5
13e
100
AcDbEntity
  8
0
 62
7
100
AcDbSpline
 70
8
 71
3
 72
8
 73
4
 74
0
 40
0
 40
0
 40
0
 40
0
 40
1
 40
1
 40
1
 40
1
 10
278.920095
 20
-100.523382
 30
0.0
 10
280.260083
 20
-99.183632
 30
0.0
 10
281.012900
 20
-97.366399
 30
0.0
 10
281.012900
 20
-95.471539
 30
0.0
  0
SPLINE
  5
13f
100
AcDbEntity
  8
0
 62
7
100
AcDbSpline
 70
8
 71
3
 72
8
 73
4
 74
0
 40
0
 40
0
 40
0
 40
0
 40
1
 40
1
 40
1
 40
1
 10
7.168769
 20
0.969145
 30
0.0
 10
5.274124
 20
0.969150
 30
0.0
 10
3.457078
 20
0.216508
 30
0.0
 10
2.117360
 20
-1.123207
 30
0.0
  0
SPLINE
  5
140
100
AcDbEntity
  8
0
 62
7
100
AcDbSpline
 70
8
 71
3
 72
8
 73
4
 74
0
 40
0
 40
0
 40
0
 40
0
 40
1
 40
1
 40
1
 40
1
 10
2.117360
 20
-1.123207
 30
0.0
 10
0.777643
 20
-2.462923
 30
0.0
 10
0.024999
 20
-4.279968
 30
0.0
 10
0.025001
 20
-6.174613
 30
0.0
  0
LWPOLYLINE
  5
141
100
AcDbEntity
  8
0
 62
7
100
AcDbPolyline
 90
1
 70
1
 10
95.870268
 20
-3.524606
 30
0.0
  0
SPLINE
  5
142
100
AcDbEntity
  8
0
 62
7
100
AcDbSpline
 70
8
 71
3
 72
8
 73
4
 74
0
 40
0
 40
0
 40
0
 40
0
 40
1
 40
1
 40
1
 40
1
 10
273.867880
 20
-3.524606
 30
0.0
 10
272.796052
 20
-3.524606
 30
0.0
 10
271.829763
 20
-4.170259
 30
0.0
 10
271.419592
 20
-5.160499
 30
0.0
  0
SPLINE
  5
143
100
AcDbEntity
  8
0
 62
7
100
AcDbSpline
 70
8
 71
3
 72
8
 73
4
 74
0
 40
0
 40
0
 40
0
 40
0
 40
1
 40
1
 40
1
 40
1
 10
271.419592
 20
-5.160499
 30
0.0
 10
271.009422
 20
-6.150739
 30
0.0
 10
271.236145
 20
-7.290554
 30
0.0
 10
271.994042
 20
-8.048451
 30
0.0
  0
SPLINE
  5
144
100
AcDbEntity
  8
0
 62
7
100
AcDbSpline
 70
8
 71
3
 72
8
 73
4
 74
0
 40
0
 40
0
 40
0
 40
0
 40
1
 40
1
 40
1
 40
1
 10
271.994042
 20
-8.048451
 30
0.0
 10
272.751939
 20
-8.806348
 30
0.0
 10
273.891754
 20
-9.033071
 30
0.0
 10
274.881994
 20
-8.622901
 30
0.0
  0
SPLINE
  5
145
100
AcDbEntity
  8
0
 62
7
100
AcDbSpline
 70
8
 71
3
 72
8
 73
4
 74
0
 40
0
 40
0
 40
0
 40
0
 40
1
 40
1
 40
1
 40
1
 10
274.881994
 20
-8.622901
 30
0.0
 10
275.872234
 20
-8.212730
 30
0.0
 10
276.517887
 20
-7.246441
 30
0.0
 10
276.517887
 20
-6.174613
 30
0.0
  0
SPLINE
  5
146
100
AcDbEntity
  8
0
 62
7
100
AcDbSpline
 70
8
 71
3
 72
8
 73
4
 74
0
 40
0
 40
0
 40
0
 40
0
 40
1
 40
1
 40
1
 40
1
 10
276.517887
 20
-6.174613
 30
0.0
 10
276.517887
 20
-5.471787
 30
0.0
 10
276.238691
 20
-4.797748
 30
0.0
 10
275.741718
 20
-4.300775
 30
0.0
  0
SPLINE
  5
147
100
AcDbEntity
  8
0
 62
7
100
AcDbSpline
 70
8
 71
3
 72
8
 73
4
 74
0
 40
0
 40
0
 40
0
 40
0
 40
1
 40
1
 40
1
 40
1
 10
275.741718
 20
-4.300775
 30
0.0
 10
275.244745
 20
-3.803802
 30
0.0
 10
274.570706
 20
-3.524606
 30
0.0
 10
273.867880
 20
-3.524606
 30
0.0
  0
LWPOLYLINE
  5
148
100
AcDbEntity
  8
0
 62
7
100
AcDbPolyline
 90
2
 70
0
 10
38.526720
 20
0.972007
 30
0.0
 10
273.867880
 20
0.969467
 30
0.0
  0
SPLINE
  5
149
100
AcDbEntity
  8
0
 62
7
100
AcDbSpline
 70
8
 71
3
 72
8
 73
4
 74
0
 40
0
 40
0
 40
0
 40
0
 40
1
 40
1
 40
1
 40
1
 10
95.870268
 20
-92.821531
 30
0.0
 10
94.798440
 20
-92.821531
 30
0.0
 10
93.832151
 20
-93.467185
 30
0.0
 10
93.421980
 20
-94.457425
 30
0.0
  0
SPLINE
  5
14a
100
AcDbEntity
  8
0
 62
7
100
AcDbSpline
 70
8
 71
3
 72
8
 73
4
 74
0
 40
0
 40
0
 40
0
 40
0
 40
1
 40
1
 40
1
 40
1
 10
93.421980
 20
-94.457425
 30
0.0
 10
93.011810
 20
-95.447665
 30
0.0
 10
93.238533
 20
-96.587480
 30
0.0
 10
93.996430
 20
-97.345377
 30
0.0
  0
SPLINE
  5
14b
100
AcDbEntity
  8
0
 62
7
100
AcDbSpline
 70
8
 71
3
 72
8
 73
4
 74
0
 40
0
 40
0
 40
0
 40
0
 40
1
 40
1
 40
1
 40
1
 10
93.996430
 20
-97.345377
 30
0.0
 10
94.754327
 20
-98.103274
 30
0.0
 10
95.894142
 20
-98.329997
 30
0.0
 10
96.884382
 20
-97.919826
 30
0.0
  0
SPLINE
  5
14c
100
AcDbEntity
  8
0
 62
7
100
AcDbSpline
 70
8
 71
3
 72
8
 73
4
 74
0
 40
0
 40
0
 40
0
 40
0
 40
1
 40
1
 40
1
 40
1
 10
96.884382
 20
-97.919826
 30
0.0
 10
97.874622
 20
-97.509656
 30
0.0
 10
98.520275
 20
-96.543367
 30
0.0
 10
98.520275
 20
-95.471539
 30
0.0
  0
SPLINE
  5
14d
100
AcDbEntity
  8
0
 62
7
100
AcDbSpline
 70
8
 71
3
 72
8
 73
4
 74
0
 40
0
 40
0
 40
0
 40
0
 40
1
 40
1
 40
1
 40
1
 10
98.520275
 20
-95.471539
 30
0.0
 10
98.520275
 20
-94.007980
 30
0.0
 10
97.333827
 20
-92.821531
 30
0.0
 10
95.870268
 20
-92.821531
 30
0.0
  0
LWPOLYLINE
  5
14e
100
AcDbEntity
  8
0
 62
7
100
AcDbPolyline
 90
1
 70
1
 10
273.867880
 20
-3.524606
 30
0.0
  0
LWPOLYLINE
  5
14f
100
AcDbEntity
  8
0
 62
7
100
AcDbPolyline
 90
1
 70
1
 10
95.870268
 20
-92.821531
 30
0.0
  0
SPLINE
  5
150
100
AcDbEntity
  8
0
 62
7
100
AcDbSpline
 70
8
 71
3
 72
8
 73
4
 74
0
 40
0
 40
0
 40
0
 40
0
 40
1
 40
1
 40
1
 40
1
 10
273.867880
 20
-92.821531
 30
0.0
 10
272.796052
 20
-92.821531
 30
0.0
 10
271.829763
 20
-93.467185
 30
0.0
 10
271.419592
 20
-94.457425
 30
0.0
  0
SPLINE
  5
151
100
AcDbEntity
  8
0
 62
7
100
AcDbSpline
 70
8
 71
3
 72
8
 73
4
 74
0
 40
0
 40
0
 40
0
 40
0
 40
1
 40
1
 40
1
 40
1
 10
271.419592
 20
-94.457425
 30
0.0
 10
271.009422
 20
-95.447665
 30
0.0
 10
271.236145
 20
-96.587480
 30
0.0
 10
271.994042
 20
-97.345377
 30
0.0
  0
SPLINE
  5
152
100
AcDbEntity
  8
0
 62
7
100
AcDbSpline
 70
8
 71
3
 72
8
 73
4
 74
0
 40
0
 40
0
 40
0
 40
0
 40
1
 40
1
 40
1
 40
1
 10
271.994042
 20
-97.345377
 30
0.0
 10
272.751939
 20
-98.103274
 30
0.0
 10
273.891754
 20
-98.329997
 30
0.0
 10
274.881994
 20
-97.919826
 30
0.0
  0
SPLINE
  5
153
100
AcDbEntity
  8
0
 62
7
100
AcDbSpline
 70
8
 71
3
 72
8
 73
4
 74
0
 40
0
 40
0
 40
0
 40
0
 40
1
 40
1
 40
1
 40
1
 10
274.881994
 20
-97.919826
 30
0.0
 10
275.872234
 20
-97.509656
 30
0.0
 10
276.517887
 20
-96.543367
 30
0.0
 10
276.517887
 20
-95.471539
 30
0.0
  0
SPLINE
  5
154
100
AcDbEntity
  8
0
 62
7
100
AcDbSpline
 70
8
 71
3
 72
8
 73
4
 74
0
 40
0
 40
0
 40
0
 40
0
 40
1
 40
1
 40
1
 40
1
 10
276.517887
 20
-95.471539
 30
0.0
 10
276.517887
 20
-94.768713
 30
0.0
 10
276.238691
 20
-94.094673
 30
0.0
 10
275.741718
 20
-93.597701
 30
0.0
  0
SPLINE
  5
155
100
AcDbEntity
  8
0
 62
7
100
AcDbSpline
 70
8
 71
3
 72
8
 73
4
 74
0
 40
0
 40
0
 40
0
 40
0
 40
1
 40
1
 40
1
 40
1
 10
275.741718
 20
-93.597701
 30
0.0
 10
275.244745
 20
-93.100728
 30
0.0
 10
274.570706
 20
-92.821531
 30
0.0
 10
273.867880
 20
-92.821531
 30
0.0
  0
LWPOLYLINE
  5
156
100
AcDbEntity
  8
0
 62
7
100
AcDbPolyline
 90
2
 70
0
 10
273.867880
 20
-102.614273
 30
0.0
 10
7.167880
 20
-102.614273
 30
0.0
  0
SPLINE
  5
157
100
AcDbEntity
  8
0
 62
7
100
AcDbSpline
 70
8
 71
3
 72
8
 73
4
 74
0
 40
0
 40
0
 40
0
 40
0
 40
1
 40
1
 40
1
 40
1
 10
7.168769
 20
-92.821531
 30
0.0
 10
6.096941
 20
-92.821531
 30
0.0
 10
5.130652
 20
-93.467185
 30
0.0
 10
4.720481
 20
-94.457425
 30
0.0
  0
SPLINE
  5
158
100
AcDbEntity
  8
0
 62
7
100
AcDbSpline
 70
8
 71
3
 72
8
 73
4
 74
0
 40
0
 40
0
 40
0
 40
0
 40
1
 40
1
 40
1
 40
1
 10
4.720481
 20
-94.457425
 30
0.0
 10
4.310311
 20
-95.447665
 30
0.0
 10
4.537034
 20
-96.587480
 30
0.0
 10
5.294931
 20
-97.345377
 30
0.0
  0
SPLINE
  5
159
100
AcDbEntity
  8
0
 62
7
100
AcDbSpline
 70
8
 71
3
 72
8
 73
4
 74
0
 40
0
 40
0
 40
0
 40
0
 40
1
 40
1
 40
1
 40
1
 10
5.294931
 20
-97.345377
 30
0.0
 10
6.052828
 20
-98.103274
 30
0.0
 10
7.192643
 20
-98.329997
 30
0.0
 10
8.182883
 20
-97.919826
 30
0.0
  0
SPLINE
  5
15a
100
AcDbEntity
  8
0
 62
7
100
AcDbSpline
 70
8
 71
3
 72
8
 73
4
 74
0
 40
0
 40
0
 40
0
 40
0
 40
1
 40
1
 40
1
 40
1
 10
8.182883
 20
-97.919826
 30
0.0
 10
9.173123
 20
-97.509656
 30
0.0
 10
9.818776
 20
-96.543367
 30
0.0
 10
9.818776
 20
-95.471539
 30
0.0
  0
SPLINE
  5
15b
100
AcDbEntity
  8
0
 62
7
100
AcDbSpline
 70
8
 71
3
 72
8
 73
4
 74
0
 40
0
 40
0
 40
0
 40
0
 40
1
 40
1
 40
1
 40
1
 10
9.818776
 20
-95.471539
 30
0.0
 10
9.818776
 20
-94.768713
 30
0.0
 10
9.539580
 20
-94.094673
 30
0.0
 10
9.042607
 20
-93.597701
 30
0.0
  0
SPLINE
  5
15c
100
AcDbEntity
  8
0
 62
7
100
AcDbSpline
 70
8
 71
3
 72
8
 73
4
 74
0
 40
0
 40
0
 40
0
 40
0
 40
1
 40
1
 40
1
 40
1
 10
9.042607
 20
-93.597701
 30
0.0
 10
8.545634
 20
-93.100728
 30
0.0
 10
7.871595
 20
-92.821531
 30
0.0
 10
7.168769
 20
-92.821531
 30
0.0
  0
LWPOLYLINE
  5
15d
100
AcDbEntity
  8
0
 62
7
100
AcDbPolyline
 90
1
 70
1
 10
273.867880
 20
-92.821531
 30
0.0
  0
SPLINE
  5
15e
100
AcDbEntity
  8
0
 62
7
100
AcDbSpline
 70
8
 71
3
 72
8
 73
4
 74
0
 40
0
 40
0
 40
0
 40
0
 40
1
 40
1
 40
1
 40
1
 10
185.167270
 20
-3.524606
 30
0.0
 10
184.095442
 20
-3.524606
 30
0.0
 10
183.129153
 20
-4.170259
 30
0.0
 10
182.718982
 20
-5.160499
 30
0.0
  0
SPLINE
  5
15f
100
AcDbEntity
  8
0
 62
7
100
AcDbSpline
 70
8
 71
3
 72
8
 73
4
 74
0
 40
0
 40
0
 40
0
 40
0
 40
1
 40
1
 40
1
 40
1
 10
182.718982
 20
-5.160499
 30
0.0
 10
182.308812
 20
-6.150739
 30
0.0
 10
182.535535
 20
-7.290554
 30
0.0
 10
183.293432
 20
-8.048451
 30
0.0
  0
SPLINE
  5
160
100
AcDbEntity
  8
0
 62
7
100
AcDbSpline
 70
8
 71
3
 72
8
 73
4
 74
0
 40
0
 40
0
 40
0
 40
0
 40
1
 40
1
 40
1
 40
1
 10
183.293432
 20
-8.048451
 30
0.0
 10
184.051329
 20
-8.806348
 30
0.0
 10
185.191144
 20
-9.033071
 30
0.0
 10
186.181384
 20
-8.622901
 30
0.0
  0
SPLINE
  5
161
100
AcDbEntity
  8
0
 62
7
100
AcDbSpline
 70
8
 71
3
 72
8
 73
4
 74
0
 40
0
 40
0
 40
0
 40
0
 40
1
 40
1
 40
1
 40
1
 10
186.181384
 20
-8.622901
 30
0.0
 10
187.171624
 20
-8.212730
 30
0.0
 10
187.817277
 20
-7.246441
 30
0.0
 10
187.817277
 20
-6.174613
 30
0.0
  0
SPLINE
  5
162
100
AcDbEntity
  8
0
 62
7
100
AcDbSpline
 70
8
 71
3
 72
8
 73
4
 74
0
 40
0
 40
0
 40
0
 40
0
 40
1
 40
1
 40
1
 40
1
 10
187.817277
 20
-6.174613
 30
0.0
 10
187.817277
 20
-5.471787
 30
0.0
 10
187.538081
 20
-4.797748
 30
0.0
 10
187.041108
 20
-4.300775
 30
0.0
  0
SPLINE
  5
163
100
AcDbEntity
  8
0
 62
7
100
AcDbSpline
 70
8
 71
3
 72
8
 73
4
 74
0
 40
0
 40
0
 40
0
 40
0
 40
1
 40
1
 40
1
 40
1
 10
187.041108
 20
-4.300775
 30
0.0
 10
186.544135
 20
-3.803802
 30
0.0
 10
185.870096
 20
-3.524606
 30
0.0
 10
185.167270
 20
-3.524606
 30
0.0
  0
LWPOLYLINE
  5
164
100
AcDbEntity
  8
0
 62
7
100
AcDbPolyline
 90
1
 70
1
 10
7.168769
 20
-92.821531
 30
0.0
  0
LWPOLYLINE
  5
165
100
AcDbEntity
  8
0
 62
7
100
AcDbPolyline
 90
1
 70
1
 10
185.167270
 20
-3.524606
 30
0.0
  0
LWPOLYLINE
  5
166
100
AcDbEntity
  8
0
 62
7
100
AcDbPolyline
 90
2
 70
0
 10
0.022860
 20
-95.469253
 30
0.0
 10
0.022860
 20
-6.173013
 30
0.0
  0
SPLINE
  5
167
100
AcDbEntity
  8
0
 62
7
100
AcDbSpline
 70
8
 71
3
 72
8
 73
4
 74
0
 40
0
 40
0
 40
0
 40
0
 40
1
 40
1
 40
1
 40
1
 10
14.907717
 20
-0.030135
 30
0.0
 10
14.907717
 20
0.522150
 30
0.0
 10
14.460003
 20
0.969865
 30
0.0
 10
13.907719
 20
0.969866
 30
0.0
  0
SPLINE
  5
168
100
AcDbEntity
  8
0
 62
7
100
AcDbSpline
 70
8
 71
3
 72
8
 73
4
 74
0
 40
0
 40
0
 40
0
 40
0
 40
1
 40
1
 40
1
 40
1
 10
38.527736
 20
0.969866
 30
0.0
 10
37.975452
 20
0.969865
 30
0.0
 10
37.527738
 20
0.522150
 30
0.0
 10
37.527738
 20
-0.030135
 30
0.0
  0
LWPOLYLINE
  5
169
100
AcDbEntity
  8
0
 62
7
100
AcDbPolyline
 90
2
 70
0
 10
281.010360
 20
-95.469253
 30
0.0
 10
281.010360
 20
-6.173013
 30
0.0
  0
ENDSEC
  0
SECTION
  2
OBJECTS
  0
DICTIONARY
  5
C
330
0
100
AcDbDictionary
  3
ACAD_GROUP
350
D
  3
ACAD_MLINESTYLE
350
17
  0
DICTIONARY
  5
D
330
C
100
AcDbDictionary
  0
DICTIONARY
  5
1A
330
C
100
AcDbDictionary
  0
DICTIONARY
  5
17
330
C
100
AcDbDictionary
  3
STANDARD
350
18
  0
DICTIONARY
  5
19
330
C
100
AcDbDictionary
  0
ENDSEC
  0
EOF
