  0
SECTION
  2
HEADER
  9
$ACADVER
  1
AC1014
  9
$HANDSEED
  5
FFFF
  9
$MEASUREMENT
 70
     1
  0
ENDSEC
  0
SECTION
  2
TABLES
  0
TABLE
  2
VPORT
  5
8
330
0
100
AcDbSymbolTable
 70
     4
  0
VPORT
  5
2E
330
8
100
AcDbSymbolTableRecord
100
AcDbViewportTableRecord
  2
*ACTIVE
 70
     0
 10
0.0
 20
0.0
 11
1.0
 21
1.0
 12
210.0
 22
148.5
 13
0.0
 23
0.0
 14
10.0
 24
10.0
 15
10.0
 25
10.0
 16
0.0
 26
0.0
 36
1.0
 17
0.0
 27
0.0
 37
0.0
 40
341.0
 41
1.24
 42
50.0
 43
0.0
 44
0.0
 50
0.0
 51
0.0
 71
     0
 72
   100
 73
     1
 74
     3
 75
     0
 76
     0
 77
     0
 78
     0
  0
ENDTAB
  0
TABLE
  2
LTYPE
  5
5
330
0
100
AcDbSymbolTable
 70
     1
  0
LTYPE
  5
14
330
5
100
AcDbSymbolTableRecord
100
AcDbLinetypeTableRecord
  2
BYBLOCK
 70
     0
  3

 72
    65
 73
     0
 40
0.0
  0
LTYPE
  5
15
330
5
100
AcDbSymbolTableRecord
100
AcDbLinetypeTableRecord
  2
BYLAYER
 70
     0
  3

 72
    65
 73
     0
 40
0.0
  0
LTYPE
  5
16
330
5
100
AcDbSymbolTableRecord
100
AcDbLinetypeTableRecord
  2
CONTINUOUS
 70
     0
  3
Solid line
 72
    65
 73
     0
 40
0.0
  0
ENDTAB
  0
TABLE
  2
LAYER
  5
2
100
AcDbSymbolTable
 70
1
  0
LAYER
  5
50
100
AcDbSymbolTableRecord
100
AcDbLayerTableRecord
  2
0
 70
0
  6
CONTINUOUS
  0
ENDTAB
  0
TABLE
  2
STYLE
  5
3
330
0
100
AcDbSymbolTable
 70
     1
  0
STYLE
  5
11
330
3
100
AcDbSymbolTableRecord
100
AcDbTextStyleTableRecord
  2
STANDARD
 70
     0
 40
0.0
 41
1.0
 50
0.0
 71
     0
 42
2.5
  3
txt
  4

  0
ENDTAB
  0
TABLE
  2
VIEW
  5
6
330
0
100
AcDbSymbolTable
 70
     0
  0
ENDTAB
  0
TABLE
  2
UCS
  5
7
330
0
100
AcDbSymbolTable
 70
     0
  0
ENDTAB
  0
TABLE
  2
APPID
  5
9
330
0
100
AcDbSymbolTable
 70
     2
  0
APPID
  5
12
330
9
100
AcDbSymbolTableRecord
100
AcDbRegAppTableRecord
  2
ACAD
 70
     0
  0
ENDTAB
  0
TABLE
  2
DIMSTYLE
  5
A
330
0
100
AcDbSymbolTable
 70
     1
  0
DIMSTYLE
105
27
330
A
100
AcDbSymbolTableRecord
100
AcDbDimStyleTableRecord
  2
ISO-25
 70
     0
  3

  4

  5

  6

  7

 40
1.0
 41
2.5
 42
0.625
 43
3.75
 44
1.25
 45
0.0
 46
0.0
 47
0.0
 48
0.0
140
2.5
141
2.5
142
0.0
143
0.03937007874016
144
1.0
145
0.0
146
1.0
147
0.625
 71
     0
 72
     0
 73
     0
 74
     0
 75
     0
 76
     0
 77
     1
 78
     8
170
     0
171
     3
172
     1
173
     0
174
     0
175
     0
176
     0
177
     0
178
     0
270
     2
271
     2
272
     2
273
     2
274
     3
340
11
275
     0
280
     0
281
     0
282
     0
283
     0
284
     8
285
     0
286
     0
287
     3
288
     0
  0
ENDTAB
  0
TABLE
  2
BLOCK_RECORD
  5
1
330
0
100
AcDbSymbolTable
 70
     1
  0
BLOCK_RECORD
  5
1F
330
1
100
AcDbSymbolTableRecord
100
AcDbBlockTableRecord
  2
*MODEL_SPACE
  0
BLOCK_RECORD
  5
1B
330
1
100
AcDbSymbolTableRecord
100
AcDbBlockTableRecord
  2
*PAPER_SPACE
  0
ENDTAB
  0
ENDSEC
  0
SECTION
  2
BLOCKS
  0
BLOCK
  5
20
330
1F
100
AcDbEntity
  8
0
100
AcDbBlockBegin
  2
*MODEL_SPACE
 70
     0
 10
0.0
 20
0.0
 30
0.0
  3
*MODEL_SPACE
  1

  0
ENDBLK
  5
21
330
1F
100
AcDbEntity
  8
0
100
AcDbBlockEnd
  0
BLOCK
  5
1C
330
1B
100
AcDbEntity
 67
     1
  8
0
100
AcDbBlockBegin
  2
*PAPER_SPACE
  1

  0
ENDBLK
  5
1D
330
1B
100
AcDbEntity
 67
     1
  8
0
100
AcDbBlockEnd
  0
ENDSEC
  0
SECTION
  2
ENTITIES
  0
LWPOLYLINE
  5
100
100
AcDbEntity
  8
0
 62
7
100
AcDbPolyline
 90
4
 70
1
 10
-247.563640
 20
-9.520568
 30
0.0
 10
-261.561580
 20
-9.520568
 30
0.0
 10
-261.561580
 20
-23.518508
 30
0.0
 10
-247.563640
 20
-23.518508
 30
0.0
  0
LWPOLYLINE
  5
101
100
AcDbEntity
  8
0
 62
7
100
AcDbPolyline
 90
4
 70
1
 10
-209.463640
 20
-47.620568
 30
0.0
 10
-223.461580
 20
-47.620568
 30
0.0
 10
-223.461580
 20
-61.618508
 30
0.0
 10
-209.463640
 20
-61.618508
 30
0.0
  0
LWPOLYLINE
  5
102
100
AcDbEntity
  8
0
 62
7
100
AcDbPolyline
 90
4
 70
1
 10
-199.938640
 20
-28.570568
 30
0.0
 10
-213.936580
 20
-28.570568
 30
0.0
 10
-213.936580
 20
-42.568508
 30
0.0
 10
-199.938640
 20
-42.568508
 30
0.0
  0
LWPOLYLINE
  5
103
100
AcDbEntity
  8
0
 62
7
100
AcDbPolyline
 90
4
 70
0
 10
-59.443620
 20
-80.671048
 30
0.0
 10
-78.206600
 20
-80.671048
 30
0.0
 10
-78.206600
 20
-66.670568
 30
0.0
 10
-59.443620
 20
-66.670568
 30
0.0
  0
LWPOLYLINE
  5
104
100
AcDbEntity
  8
0
 62
7
100
AcDbPolyline
 90
4
 70
1
 10
-14.198600
 20
-9.520568
 30
0.0
 10
-28.199080
 20
-9.520568
 30
0.0
 10
-28.199080
 20
-23.518508
 30
0.0
 10
-14.198600
 20
-23.518508
 30
0.0
  0
LWPOLYLINE
  5
105
100
AcDbEntity
  8
0
 62
7
100
AcDbPolyline
 90
4
 70
1
 10
-95.161100
 20
-47.620568
 30
0.0
 10
-109.161580
 20
-47.620568
 30
0.0
 10
-109.161580
 20
-61.618508
 30
0.0
 10
-95.161100
 20
-61.618508
 30
0.0
  0
LWPOLYLINE
  5
106
100
AcDbEntity
  8
0
 62
7
100
AcDbPolyline
 90
4
 70
1
 10
-85.636100
 20
-28.570568
 30
0.0
 10
-85.636100
 20
-42.568508
 30
0.0
 10
-99.636580
 20
-42.568508
 30
0.0
 10
-99.636580
 20
-28.570568
 30
0.0
  0
LWPOLYLINE
  5
107
100
AcDbEntity
  8
0
 62
7
100
AcDbPolyline
 90
4
 70
1
 10
-161.549080
 20
-9.520568
 30
0.0
 10
-147.551140
 20
-9.520568
 30
0.0
 10
-147.551140
 20
-23.518508
 30
0.0
 10
-161.549080
 20
-23.518508
 30
0.0
  0
LWPOLYLINE
  5
108
100
AcDbEntity
  8
0
 62
7
100
AcDbPolyline
 90
4
 70
1
 10
-104.686100
 20
-28.570568
 30
0.0
 10
-118.686580
 20
-28.570568
 30
0.0
 10
-118.686580
 20
-42.568508
 30
0.0
 10
-104.686100
 20
-42.568508
 30
0.0
  0
LWPOLYLINE
  5
109
100
AcDbEntity
  8
0
 62
7
100
AcDbPolyline
 90
4
 70
1
 10
-249.943620
 20
-66.670568
 30
0.0
 10
-263.944100
 20
-66.670568
 30
0.0
 10
-263.944100
 20
-80.671048
 30
0.0
 10
-249.943620
 20
-80.671048
 30
0.0
  0
LWPOLYLINE
  5
10a
100
AcDbEntity
  8
0
 62
7
100
AcDbPolyline
 90
4
 70
1
 10
-171.363640
 20
-47.620568
 30
0.0
 10
-185.361580
 20
-47.620568
 30
0.0
 10
-185.361580
 20
-61.618508
 30
0.0
 10
-171.363640
 20
-61.618508
 30
0.0
  0
LWPOLYLINE
  5
10b
100
AcDbEntity
  8
0
 62
7
100
AcDbPolyline
 90
4
 70
1
 10
-57.061100
 20
-47.620568
 30
0.0
 10
-57.061100
 20
-61.618508
 30
0.0
 10
-71.061580
 20
-61.618508
 30
0.0
 10
-71.061580
 20
-47.620568
 30
0.0
  0
LWPOLYLINE
  5
10c
100
AcDbEntity
  8
0
 62
7
100
AcDbPolyline
 90
5
 70
1
 10
-162.275520
 20
-28.570568
 30
0.0
 10
-175.836580
 20
-28.570568
 30
0.0
 10
-175.836580
 20
-42.568508
 30
0.0
 10
-161.838640
 20
-42.568508
 30
0.0
 10
-161.838640
 20
-28.570568
 30
0.0
  0
LWPOLYLINE
  5
10d
100
AcDbEntity
  8
0
 62
7
100
AcDbPolyline
 90
2
 70
0
 10
-118.686580
 20
-66.670568
 30
0.0
 10
-118.686580
 20
-72.357628
 30
0.0
  0
LWPOLYLINE
  5
10e
100
AcDbEntity
  8
0
 62
7
100
AcDbPolyline
 90
4
 70
0
 10
-118.686580
 20
-74.981448
 30
0.0
 10
-118.686580
 20
-80.671048
 30
0.0
 10
-104.686100
 20
-80.671048
 30
0.0
 10
-104.686100
 20
-74.981448
 30
0.0
  0
LWPOLYLINE
  5
10f
100
AcDbEntity
  8
0
 62
7
100
AcDbPolyline
 90
3
 70
0
 10
-104.686100
 20
-72.357628
 30
0.0
 10
-104.686100
 20
-66.670568
 30
0.0
 10
-118.686580
 20
-66.670568
 30
0.0
  0
LWPOLYLINE
  5
110
100
AcDbEntity
  8
0
 62
7
100
AcDbPolyline
 90
2
 70
0
 10
-96.156780
 20
-72.357628
 30
0.0
 10
-104.686100
 20
-72.357628
 30
0.0
  0
LWPOLYLINE
  5
111
100
AcDbEntity
  8
0
 62
7
100
AcDbPolyline
 90
2
 70
0
 10
-96.156780
 20
-74.981448
 30
0.0
 10
-104.686100
 20
-74.981448
 30
0.0
  0
LWPOLYLINE
  5
112
100
AcDbEntity
  8
0
 62
7
100
AcDbPolyline
 90
2
 70
0
 10
-96.156780
 20
-80.671048
 30
0.0
 10
-96.156780
 20
-74.981448
 30
0.0
  0
LWPOLYLINE
  5
113
100
AcDbEntity
  8
0
 62
7
100
AcDbPolyline
 90
2
 70
0
 10
-96.156780
 20
-66.670568
 30
0.0
 10
-96.156780
 20
-72.357628
 30
0.0
  0
LWPOLYLINE
  5
114
100
AcDbEntity
  8
0
 62
7
100
AcDbPolyline
 90
2
 70
0
 10
-96.156780
 20
-80.671048
 30
0.0
 10
-84.287360
 20
-80.671048
 30
0.0
  0
LWPOLYLINE
  5
115
100
AcDbEntity
  8
0
 62
7
100
AcDbPolyline
 90
2
 70
0
 10
-96.156780
 20
-66.670568
 30
0.0
 10
-84.287360
 20
-66.670568
 30
0.0
  0
LWPOLYLINE
  5
116
100
AcDbEntity
  8
0
 62
7
100
AcDbPolyline
 90
2
 70
0
 10
-118.686580
 20
-74.981448
 30
0.0
 10
-127.218440
 20
-74.981448
 30
0.0
  0
LWPOLYLINE
  5
117
100
AcDbEntity
  8
0
 62
7
100
AcDbPolyline
 90
2
 70
0
 10
-118.686580
 20
-72.357628
 30
0.0
 10
-127.218440
 20
-72.357628
 30
0.0
  0
LWPOLYLINE
  5
118
100
AcDbEntity
  8
0
 62
7
100
AcDbPolyline
 90
2
 70
0
 10
-127.218440
 20
-80.671048
 30
0.0
 10
-127.218440
 20
-74.981448
 30
0.0
  0
LWPOLYLINE
  5
119
100
AcDbEntity
  8
0
 62
7
100
AcDbPolyline
 90
2
 70
0
 10
-127.218440
 20
-66.670568
 30
0.0
 10
-127.218440
 20
-72.357628
 30
0.0
  0
LWPOLYLINE
  5
11a
100
AcDbEntity
  8
0
 62
7
100
AcDbPolyline
 90
4
 70
1
 10
-90.398600
 20
-9.520568
 30
0.0
 10
-104.399080
 20
-9.520568
 30
0.0
 10
-104.399080
 20
-23.518508
 30
0.0
 10
-90.398600
 20
-23.518508
 30
0.0
  0
LWPOLYLINE
  5
11b
100
AcDbEntity
  8
0
 62
7
100
AcDbPolyline
 90
4
 70
1
 10
-66.586100
 20
-28.570568
 30
0.0
 10
-66.586100
 20
-42.568508
 30
0.0
 10
-80.586580
 20
-42.568508
 30
0.0
 10
-80.586580
 20
-28.570568
 30
0.0
  0
LWPOLYLINE
  5
11c
100
AcDbEntity
  8
0
 62
7
100
AcDbPolyline
 90
4
 70
0
 10
-245.181120
 20
-28.570568
 30
0.0
 10
-263.944100
 20
-28.570568
 30
0.0
 10
-263.944100
 20
-42.568508
 30
0.0
 10
-245.181120
 20
-42.568508
 30
0.0
  0
LWPOLYLINE
  5
11d
100
AcDbEntity
  8
0
 62
7
100
AcDbPolyline
 90
5
 70
1
 10
-190.850520
 20
-47.620568
 30
0.0
 10
-204.411580
 20
-47.620568
 30
0.0
 10
-204.411580
 20
-61.618508
 30
0.0
 10
-190.413640
 20
-61.618508
 30
0.0
 10
-190.413640
 20
-47.620568
 30
0.0
  0
LWPOLYLINE
  5
11e
100
AcDbEntity
  8
0
 62
7
100
AcDbPolyline
 90
4
 70
1
 10
-47.536100
 20
-28.570568
 30
0.0
 10
-47.536100
 20
-42.568508
 30
0.0
 10
-61.536580
 20
-42.568508
 30
0.0
 10
-61.536580
 20
-28.570568
 30
0.0
  0
LWPOLYLINE
  5
11f
100
AcDbEntity
  8
0
 62
7
100
AcDbPolyline
 90
2
 70
0
 10
-245.181120
 20
-42.568508
 30
0.0
 10
-245.181120
 20
-28.570568
 30
0.0
  0
LWPOLYLINE
  5
120
100
AcDbEntity
  8
0
 62
7
100
AcDbPolyline
 90
4
 70
1
 10
-16.581120
 20
-66.670568
 30
0.0
 10
-16.581120
 20
-80.671048
 30
0.0
 10
-30.581600
 20
-80.671048
 30
0.0
 10
-30.581600
 20
-66.670568
 30
0.0
  0
LWPOLYLINE
  5
121
100
AcDbEntity
  8
0
 62
7
100
AcDbPolyline
 90
4
 70
1
 10
-38.011100
 20
-47.620568
 30
0.0
 10
-38.011100
 20
-61.618508
 30
0.0
 10
-52.011580
 20
-61.618508
 30
0.0
 10
-52.011580
 20
-47.620568
 30
0.0
  0
LWPOLYLINE
  5
122
100
AcDbEntity
  8
0
 62
7
100
AcDbPolyline
 90
4
 70
1
 10
-133.261100
 20
-47.620568
 30
0.0
 10
-133.261100
 20
-61.618508
 30
0.0
 10
-147.261580
 20
-61.618508
 30
0.0
 10
-147.261580
 20
-47.620568
 30
0.0
  0
LWPOLYLINE
  5
123
100
AcDbEntity
  8
0
 62
7
100
AcDbPolyline
 90
4
 70
1
 10
-142.786100
 20
-28.570568
 30
0.0
 10
-142.786100
 20
-42.568508
 30
0.0
 10
-156.786580
 20
-42.568508
 30
0.0
 10
-156.786580
 20
-28.570568
 30
0.0
  0
LWPOLYLINE
  5
124
100
AcDbEntity
  8
0
 62
7
100
AcDbPolyline
 90
3
 70
0
 10
-161.838640
 20
-66.670568
 30
0.0
 10
-175.836580
 20
-66.670568
 30
0.0
 10
-175.836580
 20
-72.357628
 30
0.0
  0
LWPOLYLINE
  5
125
100
AcDbEntity
  8
0
 62
7
100
AcDbPolyline
 90
4
 70
0
 10
-175.836580
 20
-74.981448
 30
0.0
 10
-175.836580
 20
-80.671048
 30
0.0
 10
-161.838640
 20
-80.671048
 30
0.0
 10
-161.838640
 20
-74.981448
 30
0.0
  0
LWPOLYLINE
  5
126
100
AcDbEntity
  8
0
 62
7
100
AcDbPolyline
 90
2
 70
0
 10
-161.838640
 20
-72.357628
 30
0.0
 10
-161.838640
 20
-66.670568
 30
0.0
  0
LWPOLYLINE
  5
127
100
AcDbEntity
  8
0
 62
7
100
AcDbPolyline
 90
2
 70
0
 10
-161.838640
 20
-72.357628
 30
0.0
 10
-153.306780
 20
-72.357628
 30
0.0
  0
LWPOLYLINE
  5
128
100
AcDbEntity
  8
0
 62
7
100
AcDbPolyline
 90
2
 70
0
 10
-161.838640
 20
-74.981448
 30
0.0
 10
-153.306780
 20
-74.981448
 30
0.0
  0
LWPOLYLINE
  5
129
100
AcDbEntity
  8
0
 62
7
100
AcDbPolyline
 90
2
 70
0
 10
-153.306780
 20
-66.670568
 30
0.0
 10
-127.218440
 20
-66.670568
 30
0.0
  0
LWPOLYLINE
  5
12a
100
AcDbEntity
  8
0
 62
7
100
AcDbPolyline
 90
2
 70
0
 10
-153.306780
 20
-72.357628
 30
0.0
 10
-153.306780
 20
-66.670568
 30
0.0
  0
LWPOLYLINE
  5
12b
100
AcDbEntity
  8
0
 62
7
100
AcDbPolyline
 90
3
 70
0
 10
-153.306780
 20
-74.981448
 30
0.0
 10
-153.306780
 20
-80.671048
 30
0.0
 10
-127.218440
 20
-80.671048
 30
0.0
  0
LWPOLYLINE
  5
12c
100
AcDbEntity
  8
0
 62
7
100
AcDbPolyline
 90
2
 70
0
 10
-184.368440
 20
-74.981448
 30
0.0
 10
-175.836580
 20
-74.981448
 30
0.0
  0
LWPOLYLINE
  5
12d
100
AcDbEntity
  8
0
 62
7
100
AcDbPolyline
 90
2
 70
0
 10
-184.368440
 20
-72.357628
 30
0.0
 10
-175.836580
 20
-72.357628
 30
0.0
  0
LWPOLYLINE
  5
12e
100
AcDbEntity
  8
0
 62
7
100
AcDbPolyline
 90
2
 70
0
 10
-184.368440
 20
-72.357628
 30
0.0
 10
-184.368440
 20
-66.670568
 30
0.0
  0
LWPOLYLINE
  5
12f
100
AcDbEntity
  8
0
 62
7
100
AcDbPolyline
 90
2
 70
0
 10
-184.368440
 20
-74.981448
 30
0.0
 10
-184.368440
 20
-80.671048
 30
0.0
  0
LWPOLYLINE
  5
130
100
AcDbEntity
  8
0
 62
7
100
AcDbPolyline
 90
2
 70
0
 10
-191.368680
 20
-66.670568
 30
0.0
 10
-184.368440
 20
-66.670568
 30
0.0
  0
LWPOLYLINE
  5
131
100
AcDbEntity
  8
0
 62
7
100
AcDbPolyline
 90
2
 70
0
 10
-191.368680
 20
-80.671048
 30
0.0
 10
-184.368440
 20
-80.671048
 30
0.0
  0
LWPOLYLINE
  5
132
100
AcDbEntity
  8
0
 62
7
100
AcDbPolyline
 90
2
 70
0
 10
-191.368680
 20
-80.671048
 30
0.0
 10
-191.368680
 20
-66.670568
 30
0.0
  0
LWPOLYLINE
  5
133
100
AcDbEntity
  8
0
 62
7
100
AcDbPolyline
 90
4
 70
0
 10
-38.011100
 20
-80.671048
 30
0.0
 10
-54.394100
 20
-80.671048
 30
0.0
 10
-54.394100
 20
-66.670568
 30
0.0
 10
-38.011100
 20
-66.670568
 30
0.0
  0
LWPOLYLINE
  5
134
100
AcDbEntity
  8
0
 62
7
100
AcDbPolyline
 90
2
 70
0
 10
-38.011100
 20
-80.671048
 30
0.0
 10
-38.011100
 20
-66.670568
 30
0.0
  0
LWPOLYLINE
  5
135
100
AcDbEntity
  8
0
 62
7
100
AcDbPolyline
 90
4
 70
1
 10
-114.211100
 20
-47.620568
 30
0.0
 10
-114.211100
 20
-61.618508
 30
0.0
 10
-128.211580
 20
-61.618508
 30
0.0
 10
-128.211580
 20
-47.620568
 30
0.0
  0
LWPOLYLINE
  5
136
100
AcDbEntity
  8
0
 62
7
100
AcDbPolyline
 90
4
 70
1
 10
-202.318620
 20
-66.670568
 30
0.0
 10
-216.319100
 20
-66.670568
 30
0.0
 10
-216.319100
 20
-80.671048
 30
0.0
 10
-202.318620
 20
-80.671048
 30
0.0
  0
LWPOLYLINE
  5
137
100
AcDbEntity
  8
0
 62
7
100
AcDbPolyline
 90
5
 70
1
 10
-226.131120
 20
-66.670568
 30
0.0
 10
-240.131600
 20
-66.670568
 30
0.0
 10
-240.131600
 20
-80.671048
 30
0.0
 10
-226.131120
 20
-80.671048
 30
0.0
 10
-226.131120
 20
-67.107448
 30
0.0
  0
LWPOLYLINE
  5
138
100
AcDbEntity
  8
0
 62
7
100
AcDbPolyline
 90
2
 70
0
 10
-84.287360
 20
-80.671048
 30
0.0
 10
-84.287360
 20
-66.670568
 30
0.0
  0
LWPOLYLINE
  5
139
100
AcDbEntity
  8
0
 62
7
100
AcDbPolyline
 90
4
 70
1
 10
-152.313640
 20
-47.620568
 30
0.0
 10
-152.313640
 20
-61.618508
 30
0.0
 10
-166.311580
 20
-61.618508
 30
0.0
 10
-166.311580
 20
-47.620568
 30
0.0
  0
LWPOLYLINE
  5
13a
100
AcDbEntity
  8
0
 62
7
100
AcDbPolyline
 90
4
 70
1
 10
-16.581120
 20
-47.620568
 30
0.0
 10
-16.581120
 20
-61.618508
 30
0.0
 10
-30.581600
 20
-61.618508
 30
0.0
 10
-30.581600
 20
-47.620568
 30
0.0
  0
LWPOLYLINE
  5
13b
100
AcDbEntity
  8
0
 62
7
100
AcDbPolyline
 90
4
 70
1
 10
-33.248600
 20
-9.520568
 30
0.0
 10
-47.249080
 20
-9.520568
 30
0.0
 10
-47.249080
 20
-23.518508
 30
0.0
 10
-33.248600
 20
-23.518508
 30
0.0
  0
LWPOLYLINE
  5
13c
100
AcDbEntity
  8
0
 62
7
100
AcDbPolyline
 90
4
 70
1
 10
-52.298600
 20
-9.520568
 30
0.0
 10
-66.299080
 20
-9.520568
 30
0.0
 10
-66.299080
 20
-23.518508
 30
0.0
 10
-52.298600
 20
-23.518508
 30
0.0
  0
LWPOLYLINE
  5
13d
100
AcDbEntity
  8
0
 62
7
100
AcDbPolyline
 90
2
 70
0
 10
-59.443620
 20
-66.670568
 30
0.0
 10
-59.443620
 20
-80.671048
 30
0.0
  0
LWPOLYLINE
  5
13e
100
AcDbEntity
  8
0
 62
7
100
AcDbPolyline
 90
4
 70
1
 10
-218.988640
 20
-28.570568
 30
0.0
 10
-232.986580
 20
-28.570568
 30
0.0
 10
-232.986580
 20
-42.568508
 30
0.0
 10
-218.988640
 20
-42.568508
 30
0.0
  0
LWPOLYLINE
  5
13f
100
AcDbEntity
  8
0
 62
7
100
AcDbPolyline
 90
4
 70
1
 10
-109.448600
 20
-9.520568
 30
0.0
 10
-109.448600
 20
-23.518508
 30
0.0
 10
-123.449080
 20
-23.518508
 30
0.0
 10
-123.449080
 20
-9.520568
 30
0.0
  0
LWPOLYLINE
  5
140
100
AcDbEntity
  8
0
 62
7
100
AcDbPolyline
 90
2
 70
0
 10
-240.418620
 20
-47.620568
 30
0.0
 10
-254.419100
 20
-47.620568
 30
0.0
  0
LWPOLYLINE
  5
141
100
AcDbEntity
  8
0
 62
7
100
AcDbPolyline
 90
3
 70
0
 10
-254.419100
 20
-61.618508
 30
0.0
 10
-240.418620
 20
-61.618508
 30
0.0
 10
-240.418620
 20
-55.931448
 30
0.0
  0
LWPOLYLINE
  5
142
100
AcDbEntity
  8
0
 62
7
100
AcDbPolyline
 90
2
 70
0
 10
-240.418620
 20
-47.620568
 30
0.0
 10
-240.418620
 20
-53.307628
 30
0.0
  0
LWPOLYLINE
  5
143
100
AcDbEntity
  8
0
 62
7
100
AcDbPolyline
 90
2
 70
0
 10
-254.419100
 20
-47.620568
 30
0.0
 10
-254.419100
 20
-53.307628
 30
0.0
  0
LWPOLYLINE
  5
144
100
AcDbEntity
  8
0
 62
7
100
AcDbPolyline
 90
2
 70
0
 10
-254.419100
 20
-61.618508
 30
0.0
 10
-254.419100
 20
-55.931448
 30
0.0
  0
LWPOLYLINE
  5
145
100
AcDbEntity
  8
0
 62
7
100
AcDbPolyline
 90
8
 70
0
 10
-240.418620
 20
-53.307628
 30
0.0
 10
-239.105440
 20
-53.307628
 30
0.0
 10
-239.105440
 20
-47.620568
 30
0.0
 10
-232.107740
 20
-47.620568
 30
0.0
 10
-232.107740
 20
-61.618508
 30
0.0
 10
-239.105440
 20
-61.618508
 30
0.0
 10
-239.105440
 20
-55.931448
 30
0.0
 10
-240.418620
 20
-55.931448
 30
0.0
  0
LWPOLYLINE
  5
146
100
AcDbEntity
  8
0
 62
7
100
AcDbPolyline
 90
2
 70
0
 10
-255.732280
 20
-53.307628
 30
0.0
 10
-254.419100
 20
-53.307628
 30
0.0
  0
LWPOLYLINE
  5
147
100
AcDbEntity
  8
0
 62
7
100
AcDbPolyline
 90
2
 70
0
 10
-254.419100
 20
-55.931448
 30
0.0
 10
-255.732280
 20
-55.931448
 30
0.0
  0
LWPOLYLINE
  5
148
100
AcDbEntity
  8
0
 62
7
100
AcDbPolyline
 90
2
 70
0
 10
-255.732280
 20
-61.618508
 30
0.0
 10
-255.732280
 20
-55.931448
 30
0.0
  0
LWPOLYLINE
  5
149
100
AcDbEntity
  8
0
 62
7
100
AcDbPolyline
 90
2
 70
0
 10
-255.732280
 20
-53.307628
 30
0.0
 10
-255.732280
 20
-47.620568
 30
0.0
  0
LWPOLYLINE
  5
14a
100
AcDbEntity
  8
0
 62
7
100
AcDbPolyline
 90
2
 70
0
 10
-255.732280
 20
-61.618508
 30
0.0
 10
-262.732520
 20
-61.618508
 30
0.0
  0
LWPOLYLINE
  5
14b
100
AcDbEntity
  8
0
 62
7
100
AcDbPolyline
 90
2
 70
0
 10
-262.732520
 20
-47.620568
 30
0.0
 10
-255.732280
 20
-47.620568
 30
0.0
  0
LWPOLYLINE
  5
14c
100
AcDbEntity
  8
0
 62
7
100
AcDbPolyline
 90
2
 70
0
 10
-262.732520
 20
-47.620568
 30
0.0
 10
-262.732520
 20
-61.618508
 30
0.0
  0
LWPOLYLINE
  5
14d
100
AcDbEntity
  8
0
 62
7
100
AcDbPolyline
 90
4
 70
1
 10
-123.736100
 20
-28.570568
 30
0.0
 10
-137.736580
 20
-28.570568
 30
0.0
 10
-137.736580
 20
-42.568508
 30
0.0
 10
-123.736100
 20
-42.568508
 30
0.0
  0
LWPOLYLINE
  5
14e
100
AcDbEntity
  8
0
 62
7
100
AcDbPolyline
 90
4
 70
1
 10
-166.601140
 20
-9.520568
 30
0.0
 10
-180.599080
 20
-9.520568
 30
0.0
 10
-180.599080
 20
-23.518508
 30
0.0
 10
-166.601140
 20
-23.518508
 30
0.0
  0
LWPOLYLINE
  5
14f
100
AcDbEntity
  8
0
 62
7
100
AcDbPolyline
 90
5
 70
1
 10
-180.888640
 20
-28.570568
 30
0.0
 10
-194.886580
 20
-28.570568
 30
0.0
 10
-194.886580
 20
-42.131628
 30
0.0
 10
-194.886580
 20
-42.568508
 30
0.0
 10
-180.888640
 20
-42.568508
 30
0.0
  0
LWPOLYLINE
  5
150
100
AcDbEntity
  8
0
 62
7
100
AcDbPolyline
 90
4
 70
1
 10
-185.651140
 20
-9.520568
 30
0.0
 10
-199.649080
 20
-9.520568
 30
0.0
 10
-199.649080
 20
-23.518508
 30
0.0
 10
-185.651140
 20
-23.518508
 30
0.0
  0
LWPOLYLINE
  5
151
100
AcDbEntity
  8
0
 62
7
100
AcDbPolyline
 90
4
 70
1
 10
-76.111100
 20
-47.620568
 30
0.0
 10
-90.111580
 20
-47.620568
 30
0.0
 10
-90.111580
 20
-61.618508
 30
0.0
 10
-76.111100
 20
-61.618508
 30
0.0
  0
LWPOLYLINE
  5
152
100
AcDbEntity
  8
0
 62
7
100
AcDbPolyline
 90
4
 70
1
 10
-71.348600
 20
-9.520568
 30
0.0
 10
-85.349080
 20
-9.520568
 30
0.0
 10
-85.349080
 20
-23.518508
 30
0.0
 10
-71.348600
 20
-23.518508
 30
0.0
  0
LWPOLYLINE
  5
153
100
AcDbEntity
  8
0
 62
7
100
AcDbPolyline
 90
5
 70
1
 10
-218.699080
 20
-9.520568
 30
0.0
 10
-218.699080
 20
-23.518508
 30
0.0
 10
-204.701140
 20
-23.518508
 30
0.0
 10
-204.701140
 20
-9.520568
 30
0.0
 10
-218.262200
 20
-9.520568
 30
0.0
  0
LWPOLYLINE
  5
154
100
AcDbEntity
  8
0
 62
7
100
AcDbPolyline
 90
4
 70
1
 10
-21.343620
 20
-28.570568
 30
0.0
 10
-35.344100
 20
-28.570568
 30
0.0
 10
-35.344100
 20
-42.568508
 30
0.0
 10
-21.343620
 20
-42.568508
 30
0.0
  0
LWPOLYLINE
  5
155
100
AcDbEntity
  8
0
 62
7
100
AcDbPolyline
 90
4
 70
1
 10
-237.749080
 20
-9.520568
 30
0.0
 10
-237.749080
 20
-23.518508
 30
0.0
 10
-223.751140
 20
-23.518508
 30
0.0
 10
-223.751140
 20
-9.520568
 30
0.0
  0
LWPOLYLINE
  5
156
100
AcDbEntity
  8
0
 62
7
100
AcDbPolyline
 90
4
 70
1
 10
-128.498600
 20
-9.520568
 30
0.0
 10
-142.499080
 20
-9.520568
 30
0.0
 10
-142.499080
 20
-23.518508
 30
0.0
 10
-128.498600
 20
-23.518508
 30
0.0
  0
SPLINE
  5
157
100
AcDbEntity
  8
0
 62
7
100
AcDbSpline
 70
8
 71
3
 72
8
 73
4
 74
0
 40
0
 40
0
 40
0
 40
0
 40
1
 40
1
 40
1
 40
1
 10
-90.255344
 20
-89.744182
 30
0.0
 10
-90.271066
 20
-86.796332
 30
0.0
 10
-92.665201
 20
-84.414931
 30
0.0
 10
-95.613093
 20
-84.414931
 30
0.0
  0
SPLINE
  5
158
100
AcDbEntity
  8
0
 62
7
100
AcDbSpline
 70
8
 71
3
 72
8
 73
4
 74
0
 40
0
 40
0
 40
0
 40
0
 40
1
 40
1
 40
1
 40
1
 10
-95.613093
 20
-84.414931
 30
0.0
 10
-98.560985
 20
-84.414931
 30
0.0
 10
-100.955120
 20
-86.796332
 30
0.0
 10
-100.970842
 20
-89.744182
 30
0.0
  0
LWPOLYLINE
  5
159
100
AcDbEntity
  8
0
 62
7
100
AcDbPolyline
 90
2
 70
0
 10
-179.552600
 20
-89.743928
 30
0.0
 10
-100.972620
 20
-89.743928
 30
0.0
  0
LWPOLYLINE
  5
15a
100
AcDbEntity
  8
0
 62
7
100
AcDbPolyline
 90
2
 70
0
 10
-265.874500
 20
-0.445148
 30
0.0
 10
-268.254480
 20
-0.445148
 30
0.0
  0
SPLINE
  5
15b
100
AcDbEntity
  8
0
 62
7
100
AcDbSpline
 70
8
 71
3
 72
8
 73
4
 74
0
 40
0
 40
0
 40
0
 40
0
 40
1
 40
1
 40
1
 40
1
 10
-100.970842
 20
-0.447289
 30
0.0
 10
-100.955120
 20
-3.395139
 30
0.0
 10
-98.560985
 20
-5.776539
 30
0.0
 10
-95.613093
 20
-5.776539
 30
0.0
  0
SPLINE
  5
15c
100
AcDbEntity
  8
0
 62
7
100
AcDbSpline
 70
8
 71
3
 72
8
 73
4
 74
0
 40
0
 40
0
 40
0
 40
0
 40
1
 40
1
 40
1
 40
1
 10
-95.613093
 20
-5.776539
 30
0.0
 10
-92.665201
 20
-5.776539
 30
0.0
 10
-90.271066
 20
-3.395139
 30
0.0
 10
-90.255344
 20
-0.447289
 30
0.0
  0
SPLINE
  5
15d
100
AcDbEntity
  8
0
 62
7
100
AcDbSpline
 70
8
 71
3
 72
8
 73
4
 74
0
 40
0
 40
0
 40
0
 40
0
 40
1
 40
1
 40
1
 40
1
 10
-12.268200
 20
-0.447289
 30
0.0
 10
-12.268196
 20
-3.405954
 30
0.0
 10
-9.870005
 20
-5.804574
 30
0.0
 10
-6.911340
 20
-5.805106
 30
0.0
  0
LWPOLYLINE
  5
15e
100
AcDbEntity
  8
0
 62
7
100
AcDbPolyline
 90
2
 70
0
 10
-6.913880
 20
-84.384528
 30
0.0
 10
-6.913880
 20
-5.804548
 30
0.0
  0
SPLINE
  5
15f
100
AcDbEntity
  8
0
 62
7
100
AcDbSpline
 70
8
 71
3
 72
8
 73
4
 74
0
 40
0
 40
0
 40
0
 40
0
 40
1
 40
1
 40
1
 40
1
 10
-6.911340
 20
-84.386306
 30
0.0
 10
-9.870028
 20
-84.386839
 30
0.0
 10
-12.268228
 20
-86.785494
 30
0.0
 10
-12.268200
 20
-89.744182
 30
0.0
  0
SPLINE
  5
160
100
AcDbEntity
  8
0
 62
7
100
AcDbSpline
 70
8
 71
3
 72
8
 73
4
 74
0
 40
0
 40
0
 40
0
 40
0
 40
1
 40
1
 40
1
 40
1
 10
-179.552346
 20
-89.744182
 30
0.0
 10
-179.568068
 20
-86.796332
 30
0.0
 10
-181.962203
 20
-84.414931
 30
0.0
 10
-184.910095
 20
-84.414931
 30
0.0
  0
SPLINE
  5
161
100
AcDbEntity
  8
0
 62
7
100
AcDbSpline
 70
8
 71
3
 72
8
 73
4
 74
0
 40
0
 40
0
 40
0
 40
0
 40
1
 40
1
 40
1
 40
1
 10
-184.910095
 20
-84.414931
 30
0.0
 10
-187.857987
 20
-84.414931
 30
0.0
 10
-190.252122
 20
-86.796332
 30
0.0
 10
-190.267844
 20
-89.744182
 30
0.0
  0
LWPOLYLINE
  5
162
100
AcDbEntity
  8
0
 62
7
100
AcDbPolyline
 90
2
 70
0
 10
-12.270740
 20
-0.445148
 30
0.0
 10
-90.256360
 20
-0.445148
 30
0.0
  0
LWPOLYLINE
  5
163
100
AcDbEntity
  8
0
 62
7
100
AcDbPolyline
 90
2
 70
0
 10
-100.972620
 20
-0.445148
 30
0.0
 10
-179.552600
 20
-0.445148
 30
0.0
  0
SPLINE
  5
164
100
AcDbEntity
  8
0
 62
7
100
AcDbSpline
 70
8
 71
3
 72
8
 73
4
 74
0
 40
0
 40
0
 40
0
 40
0
 40
1
 40
1
 40
1
 40
1
 10
-273.611739
 20
-5.805106
 30
0.0
 10
-270.652700
 20
-5.805102
 30
0.0
 10
-268.253925
 20
-3.406328
 30
0.0
 10
-268.253921
 20
-0.447289
 30
0.0
  0
SPLINE
  5
165
100
AcDbEntity
  8
0
 62
7
100
AcDbSpline
 70
8
 71
3
 72
8
 73
4
 74
0
 40
0
 40
0
 40
0
 40
0
 40
1
 40
1
 40
1
 40
1
 10
-268.253921
 20
-89.744182
 30
0.0
 10
-268.253908
 20
-88.323191
 30
0.0
 10
-268.818384
 20
-86.960395
 30
0.0
 10
-269.823171
 20
-85.955597
 30
0.0
  0
SPLINE
  5
166
100
AcDbEntity
  8
0
 62
7
100
AcDbSpline
 70
8
 71
3
 72
8
 73
4
 74
0
 40
0
 40
0
 40
0
 40
0
 40
1
 40
1
 40
1
 40
1
 10
-269.823171
 20
-85.955597
 30
0.0
 10
-270.827958
 20
-84.950799
 30
0.0
 10
-272.190748
 20
-84.386308
 30
0.0
 10
-273.611739
 20
-84.386306
 30
0.0
  0
LWPOLYLINE
  5
167
100
AcDbEntity
  8
0
 62
7
100
AcDbPolyline
 90
2
 70
0
 10
-268.254480
 20
-89.743928
 30
0.0
 10
-190.268860
 20
-89.743928
 30
0.0
  0
LWPOLYLINE
  5
168
100
AcDbEntity
  8
0
 62
7
100
AcDbPolyline
 90
2
 70
0
 10
-190.268860
 20
-0.445148
 30
0.0
 10
-265.874500
 20
-0.445148
 30
0.0
  0
SPLINE
  5
169
100
AcDbEntity
  8
0
 62
7
100
AcDbSpline
 70
8
 71
3
 72
8
 73
4
 74
0
 40
0
 40
0
 40
0
 40
0
 40
1
 40
1
 40
1
 40
1
 10
-190.267844
 20
-0.447289
 30
0.0
 10
-190.252122
 20
-3.395139
 30
0.0
 10
-187.857987
 20
-5.776539
 30
0.0
 10
-184.910095
 20
-5.776539
 30
0.0
  0
SPLINE
  5
16a
100
AcDbEntity
  8
0
 62
7
100
AcDbSpline
 70
8
 71
3
 72
8
 73
4
 74
0
 40
0
 40
0
 40
0
 40
0
 40
1
 40
1
 40
1
 40
1
 10
-184.910095
 20
-5.776539
 30
0.0
 10
-181.962203
 20
-5.776539
 30
0.0
 10
-179.568068
 20
-3.395139
 30
0.0
 10
-179.552346
 20
-0.447289
 30
0.0
  0
LWPOLYLINE
  5
16b
100
AcDbEntity
  8
0
 62
7
100
AcDbPolyline
 90
2
 70
0
 10
-273.613880
 20
-5.804548
 30
0.0
 10
-273.613880
 20
-84.384528
 30
0.0
  0
LWPOLYLINE
  5
16c
100
AcDbEntity
  8
0
 62
7
100
AcDbPolyline
 90
2
 70
0
 10
-90.256360
 20
-89.743928
 30
0.0
 10
-12.270740
 20
-89.743928
 30
0.0
  0
ENDSEC
  0
SECTION
  2
OBJECTS
  0
DICTIONARY
  5
C
330
0
100
AcDbDictionary
  3
ACAD_GROUP
350
D
  3
ACAD_MLINESTYLE
350
17
  0
DICTIONARY
  5
D
330
C
100
AcDbDictionary
  0
DICTIONARY
  5
1A
330
C
100
AcDbDictionary
  0
DICTIONARY
  5
17
330
C
100
AcDbDictionary
  3
STANDARD
350
18
  0
DICTIONARY
  5
19
330
C
100
AcDbDictionary
  0
ENDSEC
  0
EOF
