<?xml version="1.0" standalone="no"?>
 <!DOCTYPE svg PUBLIC "-//W3C//DTD SVG 1.1//EN" 
 "http://www.w3.org/Graphics/SVG/1.1/DTD/svg11.dtd"> 
<svg
  xmlns:svg="http://www.w3.org/2000/svg"
  xmlns="http://www.w3.org/2000/svg"
  xmlns:xlink="http://www.w3.org/1999/xlink"
  version="1.1"
  width="28.102560cm" height="10.363200cm" viewBox="0 0 110640 40800">
<title>SVG Picture created as BKF CASE-brd.svg date 2021/08/24 09:36:38 </title>
  <desc>Picture generated by PCBNEW </desc>
<g style="fill:#000000; fill-opacity:1;stroke:#000000; stroke-opacity:1;
stroke-linecap:round; stroke-linejoin:round;"
 transform="translate(0 0) scale(1 1)">
</g>
<g style="fill:#000000; fill-opacity:0.0; 
stroke:#000000; stroke-width:-0.000393701; stroke-opacity:1; 
stroke-linecap:round; stroke-linejoin:round;">
</g>
<g style="fill:#000000; fill-opacity:0.0; 
stroke:#000000; stroke-width:19.685; stroke-opacity:1; 
stroke-linecap:round; stroke-linejoin:round;">
<path d="M4303 35794
L4303 5006
" />
<path d="M106341 5006
L106341 35794
" />
<path d="M4303 5006
L106341 5006
" />
<path d="M4303 35794
L106341 35794
" />
<path d="M107822 40791.1 A2812.5 2812.5 0.0 0 0 110635 37978.6" />
<path d="M2822.35 9.84291 A2812.5 2812.5 0.0 0 0 9.84291 2822.35" />
<circle cx="2822.35" cy="2822.35" r="1043.31" /> 
<circle cx="107822" cy="2822.35" r="1043.31" /> 
<path d="M110635 2822.35 A2812.5 2812.5 0.0 0 0 107822 9.84291" />
<path d="M110634 37978
L110634 2822
" />
<path d="M2822 9
L107822 9
" />
<circle cx="72900.5" cy="2822.35" r="1043.31" /> 
<circle cx="37744.2" cy="37978.6" r="1043.31" /> 
<path d="M9 37978
L9 2822
" />
<path d="M9.84291 37978.6 A2812.5 2812.5 0.0 0 0 2822.35 40791.1" />
<circle cx="72900.5" cy="37978.6" r="1043.31" /> 
<path d="M107822 40791
L2822 40791
" />
<circle cx="2822.35" cy="37978.6" r="1043.31" /> 
<circle cx="37744.2" cy="2822.35" r="1043.31" /> 
<circle cx="107822" cy="37978.6" r="1043.31" /> 
<g >
</g>
<g >
</g>
<g >
</g>
<g >
</g>
<g >
</g>
<g >
</g>
<g >
</g>
<g >
</g>
<g >
</g>
<g >
</g>
<g >
</g>
<g >
</g>
<g >
</g>
<g >
</g>
<g >
</g>
<g >
</g>
<g >
</g>
<g >
</g>
<g >
</g>
<g >
</g>
<g >
</g>
<g >
</g>
<g >
</g>
<g >
</g>
<g >
</g>
<g >
</g>
<g >
</g>
<g >
</g>
<g >
</g>
<g >
</g>
<g >
</g>
<g >
</g>
<g >
</g>
<g >
</g>
<g >
</g>
<g >
</g>
<g >
</g>
<g >
</g>
<g >
</g>
<g >
</g>
<g >
</g>
<g >
</g>
<g >
</g>
<g >
</g>
<g >
</g>
<g >
</g>
<g >
</g>
<g >
</g>
<g >
</g>
<g >
</g>
<g >
</g>
<g >
</g>
<g >
</g>
<g >
</g>
<g >
</g>
<g >
</g>
<g >
</g>
<g >
</g>
<g >
</g>
<g >
</g>
<g >
</g>
<g >
</g>
<g >
</g>
<g >
</g>
<g >
</g>
<g >
</g>
<g >
</g>
<g >
</g>
<g >
</g>
<g >
</g>
<g >
</g>
<g >
</g>
<g >
</g>
<g >
</g>
<g >
</g>
<g >
</g>
<g >
</g>
<g >
</g>
<g >
</g>
<g >
</g>
<g >
</g>
<g >
</g>
<g >
</g>
<g >
</g>
<g >
</g>
<g >
</g>
<g >
</g>
<g >
</g>
<g >
</g>
<g >
</g>
<g >
</g>
<g >
</g>
<g >
</g>
<g >
</g>
<g >
</g>
<g >
</g>
<g >
</g>
<g >
</g>
<g >
</g>
<g >
</g>
<g >
</g>
<g >
</g>
</g> 
</svg>
