<?xml version="1.0" standalone="no"?>
 <!DOCTYPE svg PUBLIC "-//W3C//DTD SVG 1.1//EN" 
 "http://www.w3.org/Graphics/SVG/1.1/DTD/svg11.dtd"> 
<svg
  xmlns:svg="http://www.w3.org/2000/svg"
  xmlns="http://www.w3.org/2000/svg"
  xmlns:xlink="http://www.w3.org/1999/xlink"
  version="1.1"
  width="4.409440cm" height="3.992880cm" viewBox="0 0 17360 15720">
<title>SVG Picture created as BKF CASE-brd.svg date 2021/08/24 09:40:24 </title>
  <desc>Picture generated by PCBNEW </desc>
<g style="fill:#000000; fill-opacity:1;stroke:#000000; stroke-opacity:1;
stroke-linecap:round; stroke-linejoin:round;"
 transform="translate(0 0) scale(1 1)">
</g>
<g style="fill:#000000; fill-opacity:0.0; 
stroke:#000000; stroke-width:-0.000393701; stroke-opacity:1; 
stroke-linecap:round; stroke-linejoin:round;">
</g>
<g style="fill:#000000; fill-opacity:0.0; 
stroke:#000000; stroke-width:19.685; stroke-opacity:1; 
stroke-linecap:round; stroke-linejoin:round;">
<path d="M4546.24 9.84291 A787.402 787.402 0.0 0 0 3758.84 797.245" />
<path d="M13605.3 797.245 A787.402 787.402 0.0 0 0 12817.9 9.84331" />
<circle cx="15947.4" cy="6340" r="629.921" /> 
<path d="M13369.2 15715 A234.375 234.375 0.0 0 0 13603.6 15480.6" />
<path d="M13603 4933
L15947 4933
" />
<path d="M3759.85 15480.6 A234.375 234.375 0.0 0 0 3994.22 15715" />
<path d="M13603 7746
L13603 15480
" />
<path d="M13605 797
L13603 4933
" />
<path d="M1416.09 4933.74 A1406.25 1406.25 0.0 0 0 1416.09 7746.25" />
<path d="M13369 15715
L3994 15715
" />
<path d="M13603 7746
L15947 7746
" />
<path d="M1416 4933
L3759 4933
" />
<path d="M4546 9
L12817 9
" />
<path d="M3759 7746
L1416 7746
" />
<path d="M3759 4933
L3758 797
" />
<path d="M15947.4 7746.25 A1406.25 1406.25 0.0 0 0 15947.4 4933.74" />
<path d="M3759 15480
L3759 7746
" />
<circle cx="1416.09" cy="6340" r="629.921" /> 
<g >
</g>
<g >
</g>
<g >
</g>
<g >
</g>
<g >
</g>
<g >
</g>
<g >
</g>
<g >
</g>
<g >
</g>
<g >
</g>
<g >
</g>
<g >
</g>
<g >
</g>
<g >
</g>
<g >
</g>
<g >
</g>
<g >
</g>
<g >
</g>
<g >
</g>
<g >
</g>
<g >
</g>
<g >
</g>
<g >
</g>
<g >
</g>
<g >
</g>
<g >
</g>
<g >
</g>
<g >
</g>
<g >
</g>
<g >
</g>
<g >
</g>
<g >
</g>
<g >
</g>
<g >
</g>
<g >
</g>
<g >
</g>
<g >
</g>
<g >
</g>
<g >
</g>
<g >
</g>
<g >
</g>
<g >
</g>
<g >
</g>
<g >
</g>
<g >
</g>
<g >
</g>
<g >
</g>
<g >
</g>
<g >
</g>
<g >
</g>
<g >
</g>
<g >
</g>
<g >
</g>
<g >
</g>
<g >
</g>
<g >
</g>
<g >
</g>
<g >
</g>
<g >
</g>
<g >
</g>
<g >
</g>
<g >
</g>
<g >
</g>
<g >
</g>
<g >
</g>
<g >
</g>
<g >
</g>
<g >
</g>
<g >
</g>
<g >
</g>
<g >
</g>
<g >
</g>
<g >
</g>
<g >
</g>
<g >
</g>
<g >
</g>
<g >
</g>
<g >
</g>
<g >
</g>
<g >
</g>
<g >
</g>
<g >
</g>
<g >
</g>
<g >
</g>
<g >
</g>
<g >
</g>
<g >
</g>
<g >
</g>
<g >
</g>
<g >
</g>
<g >
</g>
<g >
</g>
<g >
</g>
<g >
</g>
<g >
</g>
<g >
</g>
<g >
</g>
<g >
</g>
<g >
</g>
<g >
</g>
<g >
</g>
<g >
</g>
</g> 
</svg>
