<?xml version="1.0" standalone="no"?>
 <!DOCTYPE svg PUBLIC "-//W3C//DTD SVG 1.1//EN" 
 "http://www.w3.org/Graphics/SVG/1.1/DTD/svg11.dtd"> 
<svg
  xmlns:svg="http://www.w3.org/2000/svg"
  xmlns="http://www.w3.org/2000/svg"
  xmlns:xlink="http://www.w3.org/1999/xlink"
  version="1.1"
  width="28.102560cm" height="10.363200cm" viewBox="0 0 110640 40800">
<title>SVG Picture created as BKF CASE-brd.svg date 2021/08/24 09:37:28 </title>
  <desc>Picture generated by PCBNEW </desc>
<g style="fill:#000000; fill-opacity:1;stroke:#000000; stroke-opacity:1;
stroke-linecap:round; stroke-linejoin:round;"
 transform="translate(0 0) scale(1 1)">
</g>
<g style="fill:#000000; fill-opacity:0.0; 
stroke:#000000; stroke-width:-0.000393701; stroke-opacity:1; 
stroke-linecap:round; stroke-linejoin:round;">
</g>
<g style="fill:#000000; fill-opacity:0.0; 
stroke:#000000; stroke-width:19.685; stroke-opacity:1; 
stroke-linecap:round; stroke-linejoin:round;">
<path d="M4931 37978
L35634 37978
" />
<circle cx="37744.2" cy="37978.6" r="1043.31" /> 
<path d="M2822 4931
L2822 35869
" />
<path d="M110634 37978
L110634 2822
" />
<path d="M107822 35869.2 A2109.38 2109.38 0.0 0 0 105713 37978.6" />
<path d="M2822.35 9.84291 A2812.5 2812.5 0.0 0 0 9.84291 2822.35" />
<circle cx="72900.5" cy="37978.6" r="1043.31" /> 
<path d="M35634.9 2822.35 A2109.38 2109.38 0.0 0 0 39853.6 2822.35" />
<circle cx="37744.2" cy="2822.35" r="1043.31" /> 
<path d="M70791 2822
L39853 2822
" />
<path d="M75009.9 37978.6 A2109.38 2109.38 0.0 0 0 70791.2 37978.6" />
<circle cx="2822.35" cy="37978.6" r="1043.31" /> 
<path d="M110635 2822.35 A2812.5 2812.5 0.0 0 0 107822 9.84291" />
<path d="M2822.35 4931.72 A2109.38 2109.38 0.0 0 0 4931.72 2822.35" />
<circle cx="107822" cy="37978.6" r="1043.31" /> 
<path d="M70791.2 2822.35 A2109.38 2109.38 0.0 0 0 75009.9 2822.35" />
<circle cx="107822" cy="2822.35" r="1043.31" /> 
<path d="M35634 2822
L4931 2822
" />
<path d="M4931.72 37978.6 A2109.38 2109.38 0.0 0 0 2822.35 35869.2" />
<path d="M107822 40791
L2822 40791
" />
<path d="M39853.6 37978.6 A2109.38 2109.38 0.0 0 0 35634.9 37978.6" />
<path d="M107822 40791.1 A2812.5 2812.5 0.0 0 0 110635 37978.6" />
<path d="M2822 9
L107822 9
" />
<circle cx="2822.35" cy="2822.35" r="1043.31" /> 
<path d="M9.84291 37978.6 A2812.5 2812.5 0.0 0 0 2822.35 40791.1" />
<path d="M105713 2822.35 A2109.38 2109.38 0.0 0 0 107822 4931.72" />
<path d="M75009 37978
L105713 37978
" />
<path d="M107822 35869
L107822 4931
" />
<path d="M105713 2822
L75009 2822
" />
<circle cx="72900.5" cy="2822.35" r="1043.31" /> 
<path d="M9 37978
L9 2822
" />
<path d="M39853 37978
L70791 37978
" />
<g >
</g>
<g >
</g>
<g >
</g>
<g >
</g>
<g >
</g>
<g >
</g>
<g >
</g>
<g >
</g>
<g >
</g>
<g >
</g>
<g >
</g>
<g >
</g>
<g >
</g>
<g >
</g>
<g >
</g>
<g >
</g>
<g >
</g>
<g >
</g>
<g >
</g>
<g >
</g>
<g >
</g>
<g >
</g>
<g >
</g>
<g >
</g>
<g >
</g>
<g >
</g>
<g >
</g>
<g >
</g>
<g >
</g>
<g >
</g>
<g >
</g>
<g >
</g>
<g >
</g>
<g >
</g>
<g >
</g>
<g >
</g>
<g >
</g>
<g >
</g>
<g >
</g>
<g >
</g>
<g >
</g>
<g >
</g>
<g >
</g>
<g >
</g>
<g >
</g>
<g >
</g>
<g >
</g>
<g >
</g>
<g >
</g>
<g >
</g>
<g >
</g>
<g >
</g>
<g >
</g>
<g >
</g>
<g >
</g>
<g >
</g>
<g >
</g>
<g >
</g>
<g >
</g>
<g >
</g>
<g >
</g>
<g >
</g>
<g >
</g>
<g >
</g>
<g >
</g>
<g >
</g>
<g >
</g>
<g >
</g>
<g >
</g>
<g >
</g>
<g >
</g>
<g >
</g>
<g >
</g>
<g >
</g>
<g >
</g>
<g >
</g>
<g >
</g>
<g >
</g>
<g >
</g>
<g >
</g>
<g >
</g>
<g >
</g>
<g >
</g>
<g >
</g>
<g >
</g>
<g >
</g>
<g >
</g>
<g >
</g>
<g >
</g>
<g >
</g>
<g >
</g>
<g >
</g>
<g >
</g>
<g >
</g>
<g >
</g>
<g >
</g>
<g >
</g>
<g >
</g>
<g >
</g>
<g >
</g>
<g >
</g>
<g >
</g>
</g> 
</svg>
