<?xml version="1.0" encoding="UTF-8" standalone="no"?>
<svg
   xmlns:dc="http://purl.org/dc/elements/1.1/"
   xmlns:cc="http://creativecommons.org/ns#"
   xmlns:rdf="http://www.w3.org/1999/02/22-rdf-syntax-ns#"
   xmlns:svg="http://www.w3.org/2000/svg"
   xmlns="http://www.w3.org/2000/svg"
   xmlns:sodipodi="http://sodipodi.sourceforge.net/DTD/sodipodi-0.dtd"
   xmlns:inkscape="http://www.inkscape.org/namespaces/inkscape"
   version="1.1"
   width="26.672540cm"
   height="8.933180cm"
   viewBox="0 0 105010 35170"
   id="svg10834"
   sodipodi:docname="BKF SAS Plate Layer 1x.svg"
   inkscape:version="1.0.2-2 (e86c870879, 2021-01-15)">
  <metadata
     id="metadata10840">
    <rdf:RDF>
      <cc:Work
         rdf:about="">
        <dc:format>image/svg+xml</dc:format>
        <dc:type
           rdf:resource="http://purl.org/dc/dcmitype/StillImage" />
      </cc:Work>
    </rdf:RDF>
  </metadata>
  <defs
     id="defs10838" />
  <sodipodi:namedview
     pagecolor="#ffffff"
     bordercolor="#666666"
     borderopacity="1"
     objecttolerance="10"
     gridtolerance="10"
     guidetolerance="10"
     inkscape:pageopacity="0"
     inkscape:pageshadow="2"
     inkscape:window-width="1920"
     inkscape:window-height="1017"
     id="namedview10836"
     showgrid="false"
     inkscape:zoom="1.461776"
     inkscape:cx="-548.46921"
     inkscape:cy="262.39642"
     inkscape:window-x="-8"
     inkscape:window-y="-8"
     inkscape:window-maximized="1"
     inkscape:current-layer="svg10834" />
  <title
     id="title9586">SVG Picture created as BKF CASE-brd.svg date 2021/05/28 12:48:27 </title>
  <desc
     id="desc9588">Picture generated by PCBNEW </desc>
  <g
     style="fill:#000000;fill-opacity:1;stroke:#000000;stroke-linecap:round;stroke-linejoin:round;stroke-opacity:1"
     transform="translate(-107730.99,503.88676)"
     id="g9590" />
  <g
     style="fill:#000000;fill-opacity:0;stroke:#000000;stroke-width:-0.000393701;stroke-linecap:round;stroke-linejoin:round;stroke-opacity:1"
     id="g9592"
     transform="translate(-107730.99,503.88676)" />
  <g
     style="fill:#000000;fill-opacity:0;stroke:#000000;stroke-width:47.2441;stroke-linecap:round;stroke-linejoin:round;stroke-opacity:1"
     id="g10480"
     transform="translate(-107730.99,503.88676)">
    <path
       d="M 10265,3582 H 4754"
       id="path9594" />
    <path
       d="M 4754,3582 V 9093"
       id="path9596" />
    <path
       d="m 4754,9093 h 5511"
       id="path9598" />
    <path
       d="M 10265,9093 V 3582"
       id="path9600" />
    <path
       d="M 25265,18582 H 19754"
       id="path9602" />
    <path
       d="m 19754,18582 v 5511"
       id="path9604" />
    <path
       d="m 19754,24093 h 5511"
       id="path9606" />
    <path
       d="M 25265,24093 V 18582"
       id="path9608" />
    <path
       d="M 29015,11082 H 23504"
       id="path9610" />
    <path
       d="m 23504,11082 v 5511"
       id="path9612" />
    <path
       d="m 23504,16593 h 5511"
       id="path9614" />
    <path
       d="M 29015,16593 V 11082"
       id="path9616" />
    <path
       d="M 84328,31594 H 76941"
       id="path9620"
       sodipodi:nodetypes="cc" />
    <path
       d="M 76941,31594 V 26082"
       id="path9622" />
    <path
       d="m 76941,26082 h 7387"
       id="path9624"
       sodipodi:nodetypes="cc" />
    <path
       d="M 102141,3582 H 96629"
       id="path9626" />
    <path
       d="M 96629,3582 V 9093"
       id="path9628" />
    <path
       d="m 96629,9093 h 5512"
       id="path9630" />
    <path
       d="M 102141,9093 V 3582"
       id="path9632" />
    <path
       d="M 70266,18582 H 64754"
       id="path9634" />
    <path
       d="m 64754,18582 v 5511"
       id="path9636" />
    <path
       d="m 64754,24093 h 5512"
       id="path9638" />
    <path
       d="M 70266,24093 V 18582"
       id="path9640" />
    <path
       d="m 74016,11082 v 5511"
       id="path9642" />
    <path
       d="M 74016,16593 H 68504"
       id="path9644" />
    <path
       d="M 68504,16593 V 11082"
       id="path9646" />
    <path
       d="m 68504,11082 h 5512"
       id="path9648" />
    <path
       d="m 44129,3582 h 5511"
       id="path9650" />
    <path
       d="M 49640,3582 V 9093"
       id="path9652" />
    <path
       d="M 49640,9093 H 44129"
       id="path9654" />
    <path
       d="M 44129,9093 V 3582"
       id="path9656" />
    <path
       d="M 66516,11082 H 61004"
       id="path9658" />
    <path
       d="m 61004,11082 v 5511"
       id="path9660" />
    <path
       d="m 61004,16593 h 5512"
       id="path9662" />
    <path
       d="M 66516,16593 V 11082"
       id="path9664" />
    <path
       d="M 9328,26082 H 3816"
       id="path9666" />
    <path
       d="m 3816,26082 v 5512"
       id="path9668" />
    <path
       d="M 3816,31594 H 9328"
       id="path9670" />
    <path
       d="M 9328,31594 V 26082"
       id="path9672" />
    <path
       d="M 40265,18582 H 34754"
       id="path9674" />
    <path
       d="m 34754,18582 v 5511"
       id="path9676" />
    <path
       d="m 34754,24093 h 5511"
       id="path9678" />
    <path
       d="M 40265,24093 V 18582"
       id="path9680" />
    <path
       d="m 85266,18582 v 5511"
       id="path9682" />
    <path
       d="M 85266,24093 H 79754"
       id="path9684" />
    <path
       d="M 79754,24093 V 18582"
       id="path9686" />
    <path
       d="m 79754,18582 h 5512"
       id="path9688" />
    <path
       d="M 43843,11082 H 38504"
       id="path9690" />
    <path
       d="m 38504,11082 v 5511"
       id="path9692" />
    <path
       d="m 38504,16593 h 5511"
       id="path9694" />
    <path
       d="M 44015,16593 V 11082"
       id="path9696" />
    <path
       d="m 44015,11082 h -172"
       id="path9698" />
    <path
       d="m 61004,26082 v 2239"
       id="path9700" />
    <path
       d="m 61004,29354 v 2240"
       id="path9702" />
    <path
       d="m 61004,31594 h 5512"
       id="path9704" />
    <path
       d="M 66516,31594 V 29354"
       id="path9706" />
    <path
       d="M 66516,28321 V 26082"
       id="path9708" />
    <path
       d="M 66516,26082 H 61004"
       id="path9710" />
    <path
       d="M 69874,28321 H 66516"
       id="path9712" />
    <path
       d="M 69874,29354 H 66516"
       id="path9714" />
    <path
       d="M 69874,31594 V 29354"
       id="path9716" />
    <path
       d="m 69874,26082 v 2239"
       id="path9718" />
    <path
       d="m 69874,31594 h 4673"
       id="path9720"
       sodipodi:nodetypes="cc" />
    <path
       d="m 69874,26082 h 4673"
       id="path9722"
       sodipodi:nodetypes="cc" />
    <path
       d="M 61004,29354 H 57645"
       id="path9726" />
    <path
       d="M 61004,28321 H 57645"
       id="path9728" />
    <path
       d="M 57645,31594 V 29354"
       id="path9730" />
    <path
       d="m 57645,26082 v 2239"
       id="path9732" />
    <path
       d="M 72141,3582 H 66629"
       id="path9740" />
    <path
       d="M 66629,3582 V 9093"
       id="path9742" />
    <path
       d="m 66629,9093 h 5512"
       id="path9744" />
    <path
       d="M 72141,9093 V 3582"
       id="path9746" />
    <path
       d="m 81516,11082 v 5511"
       id="path9748" />
    <path
       d="M 81516,16593 H 76004"
       id="path9750" />
    <path
       d="M 76004,16593 V 11082"
       id="path9752" />
    <path
       d="m 76004,11082 h 5512"
       id="path9754" />
    <path
       d="M 11203,11082 H 3816"
       id="path9756"
       sodipodi:nodetypes="cc" />
    <path
       d="m 3816,11082 v 5511"
       id="path9758" />
    <path
       d="m 3816,16593 h 7387"
       id="path9760"
       sodipodi:nodetypes="cc" />
    <path
       d="M 32593,18582 H 27254"
       id="path9766" />
    <path
       d="m 27254,18582 v 5511"
       id="path9768" />
    <path
       d="m 27254,24093 h 5511"
       id="path9770" />
    <path
       d="M 32765,24093 V 18582"
       id="path9772" />
    <path
       d="m 32765,18582 h -172"
       id="path9774" />
    <path
       d="m 89016,11082 v 5511"
       id="path9776" />
    <path
       d="M 89016,16593 H 83504"
       id="path9778" />
    <path
       d="M 83504,16593 V 11082"
       id="path9780" />
    <path
       d="m 83504,11082 h 5512"
       id="path9782" />
    <path
       d="M 11203,16593 V 11082"
       id="path9790" />
    <path
       d="m 101203,26082 v 5512"
       id="path9792" />
    <path
       d="M 101203,31594 H 95691"
       id="path9794" />
    <path
       d="M 95691,31594 V 26082"
       id="path9796" />
    <path
       d="m 95691,26082 h 5512"
       id="path9798" />
    <path
       d="m 92766,18582 v 5511"
       id="path9800" />
    <path
       d="M 92766,24093 H 87254"
       id="path9802" />
    <path
       d="M 87254,24093 V 18582"
       id="path9804" />
    <path
       d="m 87254,18582 h 5512"
       id="path9806" />
    <path
       d="m 55266,18582 v 5511"
       id="path9808" />
    <path
       d="M 55266,24093 H 49754"
       id="path9810" />
    <path
       d="M 49754,24093 V 18582"
       id="path9812" />
    <path
       d="m 49754,18582 h 5512"
       id="path9814" />
    <path
       d="m 51516,11082 v 5511"
       id="path9816" />
    <path
       d="M 51516,16593 H 46004"
       id="path9818" />
    <path
       d="M 46004,16593 V 11082"
       id="path9820" />
    <path
       d="m 46004,11082 h 5512"
       id="path9822" />
    <path
       d="M 44015,26082 H 38504"
       id="path9824" />
    <path
       d="m 38504,26082 v 2239"
       id="path9826" />
    <path
       d="m 38504,29354 v 2240"
       id="path9828" />
    <path
       d="m 38504,31594 h 5511"
       id="path9830" />
    <path
       d="M 44015,31594 V 29354"
       id="path9832" />
    <path
       d="M 44015,28321 V 26082"
       id="path9834" />
    <path
       d="m 44015,28321 h 3359"
       id="path9836" />
    <path
       d="m 44015,29354 h 3359"
       id="path9838" />
    <path
       d="M 47374,26082 H 57645"
       id="path9840"
       sodipodi:nodetypes="cc" />
    <path
       d="M 47374,28321 V 26082"
       id="path9842" />
    <path
       d="m 47374,29354 v 2240"
       id="path9844" />
    <path
       d="M 47374,31594 H 57645"
       id="path9846"
       sodipodi:nodetypes="cc" />
    <path
       d="m 35145,29354 h 3359"
       id="path9850" />
    <path
       d="m 35145,28321 h 3359"
       id="path9852" />
    <path
       d="M 35145,28321 V 26082"
       id="path9854" />
    <path
       d="m 35145,29354 v 2240"
       id="path9856" />
    <path
       d="m 32389,26082 h 2756"
       id="path9858" />
    <path
       d="m 32389,31594 h 2756"
       id="path9860" />
    <path
       d="M 32389,31594 V 26082"
       id="path9862" />
    <path
       d="M 92766,31594 H 86316"
       id="path9866"
       sodipodi:nodetypes="cc" />
    <path
       d="M 86316,31594 V 26082"
       id="path9868" />
    <path
       d="m 86316,26082 h 6450"
       id="path9870"
       sodipodi:nodetypes="cc" />
    <path
       d="M 92766,31594 V 26082"
       id="path9878" />
    <path
       d="m 62766,18582 v 5511"
       id="path9880" />
    <path
       d="M 62766,24093 H 57254"
       id="path9882" />
    <path
       d="M 57254,24093 V 18582"
       id="path9884" />
    <path
       d="m 57254,18582 h 5512"
       id="path9886" />
    <path
       d="M 28078,26082 H 22566"
       id="path9888" />
    <path
       d="m 22566,26082 v 5512"
       id="path9890" />
    <path
       d="m 22566,31594 h 5512"
       id="path9892" />
    <path
       d="M 28078,31594 V 26082"
       id="path9894" />
    <path
       d="M 18703,26082 H 13191"
       id="path9896" />
    <path
       d="m 13191,26082 v 5512"
       id="path9898" />
    <path
       d="m 13191,31594 h 5512"
       id="path9900" />
    <path
       d="M 18703,31594 V 26254"
       id="path9902" />
    <path
       d="m 18703,26254 v -172"
       id="path9904" />
    <path
       d="M 74547,31594 V 26082"
       id="path9944" />
    <path
       d="m 47765,18582 v 5511"
       id="path9946" />
    <path
       d="M 47765,24093 H 42254"
       id="path9948" />
    <path
       d="M 42254,24093 V 18582"
       id="path9950" />
    <path
       d="m 42254,18582 h 5511"
       id="path9952" />
    <path
       d="m 101203,18582 v 5511"
       id="path9954" />
    <path
       d="M 101203,24093 H 95691"
       id="path9956" />
    <path
       d="M 95691,24093 V 18582"
       id="path9958" />
    <path
       d="m 95691,18582 h 5512"
       id="path9960" />
    <path
       d="M 94641,3582 H 89129"
       id="path9962" />
    <path
       d="M 89129,3582 V 9093"
       id="path9964" />
    <path
       d="m 89129,9093 h 5512"
       id="path9966" />
    <path
       d="M 94641,9093 V 3582"
       id="path9968" />
    <path
       d="M 87141,3582 H 81629"
       id="path9970" />
    <path
       d="M 81629,3582 V 9093"
       id="path9972" />
    <path
       d="m 81629,9093 h 5512"
       id="path9974" />
    <path
       d="M 87141,9093 V 3582"
       id="path9976" />
    <path
       d="m 84328,26082 v 5512"
       id="path9978" />
    <path
       d="M 21515,11082 H 16004"
       id="path9986" />
    <path
       d="m 16004,11082 v 5511"
       id="path9988" />
    <path
       d="m 16004,16593 h 5511"
       id="path9990" />
    <path
       d="M 21515,16593 V 11082"
       id="path9992" />
    <path
       d="M 64641,3582 V 9093"
       id="path9994" />
    <path
       d="M 64641,9093 H 59129"
       id="path9996" />
    <path
       d="M 59129,9093 V 3582"
       id="path9998" />
    <path
       d="m 59129,3582 h 5512"
       id="path10000" />
    <path
       d="M 13078,18582 H 7566"
       id="path10002" />
    <path
       d="m 7566,24093 h 5512"
       id="path10004" />
    <path
       d="M 13078,24093 V 21854"
       id="path10006" />
    <path
       d="m 13078,18582 v 2239"
       id="path10008" />
    <path
       d="m 7566,18582 v 2239"
       id="path10010" />
    <path
       d="M 7566,24093 V 21854"
       id="path10012" />
    <path
       d="m 13078,20821 h 517"
       id="path10014" />
    <path
       d="M 13595,20821 V 18582"
       id="path10016" />
    <path
       d="m 13595,18582 h 2755"
       id="path10018" />
    <path
       d="m 16350,18582 v 5511"
       id="path10020" />
    <path
       d="M 16350,24093 H 13595"
       id="path10022" />
    <path
       d="M 13595,24093 V 21854"
       id="path10024" />
    <path
       d="m 13595,21854 h -517"
       id="path10026" />
    <path
       d="m 7049,20821 h 517"
       id="path10028" />
    <path
       d="M 7566,21854 H 7049"
       id="path10030" />
    <path
       d="M 7049,24093 V 21854"
       id="path10032" />
    <path
       d="M 7049,20821 V 18582"
       id="path10034" />
    <path
       d="M 7049,24093 H 4293"
       id="path10036" />
    <path
       d="M 4293,18582 H 7049"
       id="path10038" />
    <path
       d="m 4293,18582 v 5511"
       id="path10040" />
    <path
       d="M 59016,11082 H 53504"
       id="path10042" />
    <path
       d="m 53504,11082 v 5511"
       id="path10044" />
    <path
       d="m 53504,16593 h 5512"
       id="path10046" />
    <path
       d="M 59016,16593 V 11082"
       id="path10048" />
    <path
       d="M 42140,3582 H 36629"
       id="path10050" />
    <path
       d="M 36629,3582 V 9093"
       id="path10052" />
    <path
       d="m 36629,9093 h 5511"
       id="path10054" />
    <path
       d="M 42140,9093 V 3582"
       id="path10056" />
    <path
       d="M 36515,11082 H 31004"
       id="path10058" />
    <path
       d="m 31004,11082 v 5339"
       id="path10060" />
    <path
       d="m 31004,16421 v 172"
       id="path10062" />
    <path
       d="m 31004,16593 h 5511"
       id="path10064" />
    <path
       d="M 36515,16593 V 11082"
       id="path10066" />
    <path
       d="M 34640,3582 H 29129"
       id="path10068" />
    <path
       d="M 29129,3582 V 9093"
       id="path10070" />
    <path
       d="m 29129,9093 h 5511"
       id="path10072" />
    <path
       d="M 34640,9093 V 3582"
       id="path10074" />
    <path
       d="M 77766,18582 H 72254"
       id="path10076" />
    <path
       d="m 72254,18582 v 5511"
       id="path10078" />
    <path
       d="m 72254,24093 h 5512"
       id="path10080" />
    <path
       d="M 77766,24093 V 18582"
       id="path10082" />
    <path
       d="M 79641,3582 H 74129"
       id="path10084" />
    <path
       d="M 74129,3582 V 9093"
       id="path10086" />
    <path
       d="m 74129,9093 h 5512"
       id="path10088" />
    <path
       d="M 79641,9093 V 3582"
       id="path10090" />
    <path
       d="M 21629,3582 V 9093"
       id="path10092" />
    <path
       d="m 21629,9093 h 5511"
       id="path10094" />
    <path
       d="M 27140,9093 V 3582"
       id="path10096" />
    <path
       d="M 27140,3582 H 21801"
       id="path10098" />
    <path
       d="m 21801,3582 h -172"
       id="path10100" />
    <path
       d="M 99328,11082 H 93816"
       id="path10102" />
    <path
       d="m 93816,11082 v 5511"
       id="path10104" />
    <path
       d="m 93816,16593 h 5512"
       id="path10106" />
    <path
       d="M 99328,16593 V 11082"
       id="path10108" />
    <path
       d="M 14129,3582 V 9093"
       id="path10150" />
    <path
       d="m 14129,9093 h 5511"
       id="path10152" />
    <path
       d="M 19640,9093 V 3582"
       id="path10154" />
    <path
       d="M 19640,3582 H 14129"
       id="path10156" />
    <path
       d="M 57141,3582 H 51629"
       id="path10158" />
    <path
       d="M 51629,3582 V 9093"
       id="path10160" />
    <path
       d="m 51629,9093 h 5512"
       id="path10162" />
    <path
       d="M 57141,9093 V 3582"
       id="path10164" />
    <g
       id="g10166" />
    <g
       id="g10168" />
    <g
       id="g10170" />
    <g
       id="g10172" />
    <g
       id="g10174" />
    <g
       id="g10176" />
    <g
       id="g10178" />
    <g
       id="g10180" />
    <g
       id="g10182" />
    <g
       id="g10184" />
    <g
       id="g10186" />
    <g
       id="g10188" />
    <g
       id="g10190" />
    <g
       id="g10192" />
    <g
       id="g10194" />
    <g
       id="g10196" />
    <g
       id="g10198" />
    <g
       id="g10200" />
    <g
       id="g10202" />
    <g
       id="g10204" />
    <g
       id="g10206" />
    <g
       id="g10208" />
    <g
       id="g10210" />
    <g
       id="g10212" />
    <g
       id="g10214" />
    <g
       id="g10216" />
    <g
       id="g10218" />
    <g
       id="g10220" />
    <g
       id="g10222" />
    <g
       id="g10224" />
    <g
       id="g10226" />
    <g
       id="g10228" />
    <g
       id="g10230" />
    <g
       id="g10232" />
    <g
       id="g10234" />
    <g
       id="g10236" />
    <g
       id="g10238" />
    <g
       id="g10240" />
    <g
       id="g10242" />
    <g
       id="g10244" />
    <g
       id="g10246" />
    <g
       id="g10248" />
    <g
       id="g10250" />
    <g
       id="g10252" />
    <g
       id="g10254" />
    <g
       id="g10256" />
    <g
       id="g10258" />
    <g
       id="g10260" />
    <g
       id="g10262" />
    <g
       id="g10264" />
    <g
       id="g10266" />
    <g
       id="g10268" />
    <g
       id="g10270" />
    <g
       id="g10272" />
    <g
       id="g10274" />
    <g
       id="g10276" />
    <g
       id="g10278" />
    <g
       id="g10280" />
    <g
       id="g10282" />
    <g
       id="g10284" />
    <g
       id="g10286" />
    <g
       id="g10288" />
    <g
       id="g10290" />
    <g
       id="g10292" />
    <g
       id="g10294" />
    <g
       id="g10296" />
    <g
       id="g10298" />
    <g
       id="g10300" />
    <g
       id="g10302" />
    <g
       id="g10304" />
    <g
       id="g10306" />
    <g
       id="g10308" />
    <g
       id="g10310" />
    <g
       id="g10312" />
    <g
       id="g10314" />
    <g
       id="g10316" />
    <g
       id="g10318" />
    <g
       id="g10320" />
    <g
       id="g10322" />
    <g
       id="g10324" />
    <g
       id="g10326" />
    <g
       id="g10328" />
    <g
       id="g10330" />
    <g
       id="g10332" />
    <g
       id="g10334" />
    <g
       id="g10336" />
    <g
       id="g10338" />
    <g
       id="g10340" />
    <g
       id="g10342" />
    <g
       id="g10344" />
    <g
       id="g10346" />
    <g
       id="g10348" />
    <g
       id="g10350" />
    <g
       id="g10352" />
    <g
       id="g10354" />
    <g
       id="g10356" />
    <g
       id="g10358" />
    <g
       id="g10360" />
    <g
       id="g10362" />
    <g
       id="g10364" />
    <g
       id="g10366" />
    <g
       id="g10368" />
    <g
       id="g10370" />
    <g
       id="g10372" />
    <g
       id="g10374" />
    <g
       id="g10376" />
    <g
       id="g10378" />
    <g
       id="g10380" />
    <g
       id="g10382" />
    <g
       id="g10384" />
    <g
       id="g10386" />
    <g
       id="g10388" />
    <g
       id="g10390" />
    <g
       id="g10392" />
    <g
       id="g10394" />
    <g
       id="g10396" />
    <g
       id="g10398" />
    <g
       id="g10400" />
    <g
       id="g10402" />
    <g
       id="g10404" />
    <g
       id="g10406" />
    <g
       id="g10408" />
    <g
       id="g10410" />
    <g
       id="g10412" />
    <g
       id="g10414" />
    <g
       id="g10416" />
    <g
       id="g10418" />
    <g
       id="g10420" />
    <g
       id="g10422" />
    <g
       id="g10424" />
    <g
       id="g10426" />
    <g
       id="g10428" />
    <g
       id="g10430" />
    <g
       id="g10432" />
    <g
       id="g10434" />
    <g
       id="g10436" />
    <g
       id="g10438" />
    <g
       id="g10440" />
    <g
       id="g10442" />
    <g
       id="g10444" />
    <g
       id="g10446" />
    <g
       id="g10448" />
    <g
       id="g10450" />
    <g
       id="g10452" />
    <g
       id="g10454" />
    <g
       id="g10456" />
    <g
       id="g10458" />
    <g
       id="g10460" />
    <g
       id="g10462" />
    <g
       id="g10464" />
    <g
       id="g10466" />
    <g
       id="g10468" />
    <g
       id="g10470" />
    <g
       id="g10472" />
    <g
       id="g10474" />
    <g
       id="g10476" />
    <g
       id="g10478" />
  </g>
  <g
     style="fill:#000000;fill-opacity:0;stroke:#000000;stroke-width:47.2441;stroke-linecap:round;stroke-linejoin:round;stroke-opacity:1"
     id="g10482"
     transform="translate(-107730.99,503.88676)" />
  <g
     style="fill:#000000;fill-opacity:0;stroke:#000000;stroke-width:19.685;stroke-linecap:round;stroke-linejoin:round;stroke-opacity:1"
     id="g10832"
     transform="translate(-107730.99,503.88676)">
    <path
       d="M 37041,35166 H 67978"
       id="path10484" />
    <path
       d="m 72197.4,35166.1 a 2109.38,2109.38 0 0 0 -4218.7,0"
       id="path10486" />
    <path
       d="M 3056,9 H 2119"
       id="path10488" />
    <path
       d="M 105009,33056 V 2119"
       id="path10490" />
    <path
       d="m 67978.7,9.84291 a 2109.38,2109.38 0 0 0 4218.7,0"
       id="path10492" />
    <path
       d="M 102901,9.84291 A 2109.38,2109.38 0 0 0 105010,2119.22"
       id="path10494" />
    <path
       d="M 102900,9 H 72197"
       id="path10496" />
    <path
       d="m 105010,33056.7 a 2109.38,2109.38 0 0 0 -2109,2109.4"
       id="path10498" />
    <path
       d="m 37041.1,35166.1 a 2109.38,2109.38 0 0 0 -4218.7,0"
       id="path10500" />
    <path
       d="M 67978,9 H 37041"
       id="path10502" />
    <path
       d="M 2119,35166 H 32822"
       id="path10504" />
    <path
       d="M 9.84291,2119.22 A 2109.38,2109.38 0 0 0 2119.22,9.84291"
       id="path10506" />
    <path
       d="M 2119.22,35166.1 A 2109.38,2109.38 0 0 0 9.84291,33056.7"
       id="path10508" />
    <path
       d="M 32822,9 H 3056"
       id="path10510" />
    <path
       d="M 9,2119 V 33056"
       id="path10512" />
    <path
       d="m 32822.4,9.84291 a 2109.38,2109.38 0 0 0 4218.7,0"
       id="path10514" />
    <path
       d="m 72197,35166 h 30703"
       id="path10516" />
    <g
       id="g10518" />
    <g
       id="g10520" />
    <g
       id="g10522" />
    <g
       id="g10524" />
    <g
       id="g10526" />
    <g
       id="g10528" />
    <g
       id="g10530" />
    <g
       id="g10532" />
    <g
       id="g10534" />
    <g
       id="g10536" />
    <g
       id="g10538" />
    <g
       id="g10540" />
    <g
       id="g10542" />
    <g
       id="g10544" />
    <g
       id="g10546" />
    <g
       id="g10548" />
    <g
       id="g10550" />
    <g
       id="g10552" />
    <g
       id="g10554" />
    <g
       id="g10556" />
    <g
       id="g10558" />
    <g
       id="g10560" />
    <g
       id="g10562" />
    <g
       id="g10564" />
    <g
       id="g10566" />
    <g
       id="g10568" />
    <g
       id="g10570" />
    <g
       id="g10572" />
    <g
       id="g10574" />
    <g
       id="g10576" />
    <g
       id="g10578" />
    <g
       id="g10580" />
    <g
       id="g10582" />
    <g
       id="g10584" />
    <g
       id="g10586" />
    <g
       id="g10588" />
    <g
       id="g10590" />
    <g
       id="g10592" />
    <g
       id="g10594" />
    <g
       id="g10596" />
    <g
       id="g10598" />
    <g
       id="g10600" />
    <g
       id="g10602" />
    <g
       id="g10604" />
    <g
       id="g10606" />
    <g
       id="g10608" />
    <g
       id="g10610" />
    <g
       id="g10612" />
    <g
       id="g10614" />
    <g
       id="g10616" />
    <g
       id="g10618" />
    <g
       id="g10620" />
    <g
       id="g10622" />
    <g
       id="g10624" />
    <g
       id="g10626" />
    <g
       id="g10628" />
    <g
       id="g10630" />
    <g
       id="g10632" />
    <g
       id="g10634" />
    <g
       id="g10636" />
    <g
       id="g10638" />
    <g
       id="g10640" />
    <g
       id="g10642" />
    <g
       id="g10644" />
    <g
       id="g10646" />
    <g
       id="g10648" />
    <g
       id="g10650" />
    <g
       id="g10652" />
    <g
       id="g10654" />
    <g
       id="g10656" />
    <g
       id="g10658" />
    <g
       id="g10660" />
    <g
       id="g10662" />
    <g
       id="g10664" />
    <g
       id="g10666" />
    <g
       id="g10668" />
    <g
       id="g10670" />
    <g
       id="g10672" />
    <g
       id="g10674" />
    <g
       id="g10676" />
    <g
       id="g10678" />
    <g
       id="g10680" />
    <g
       id="g10682" />
    <g
       id="g10684" />
    <g
       id="g10686" />
    <g
       id="g10688" />
    <g
       id="g10690" />
    <g
       id="g10692" />
    <g
       id="g10694" />
    <g
       id="g10696" />
    <g
       id="g10698" />
    <g
       id="g10700" />
    <g
       id="g10702" />
    <g
       id="g10704" />
    <g
       id="g10706" />
    <g
       id="g10708" />
    <g
       id="g10710" />
    <g
       id="g10712" />
    <g
       id="g10714" />
    <g
       id="g10716" />
    <g
       id="g10718" />
    <g
       id="g10720" />
    <g
       id="g10722" />
    <g
       id="g10724" />
    <g
       id="g10726" />
    <g
       id="g10728" />
    <g
       id="g10730" />
    <g
       id="g10732" />
    <g
       id="g10734" />
    <g
       id="g10736" />
    <g
       id="g10738" />
    <g
       id="g10740" />
    <g
       id="g10742" />
    <g
       id="g10744" />
    <g
       id="g10746" />
    <g
       id="g10748" />
    <g
       id="g10750" />
    <g
       id="g10752" />
    <g
       id="g10754" />
    <g
       id="g10756" />
    <g
       id="g10758" />
    <g
       id="g10760" />
    <g
       id="g10762" />
    <g
       id="g10764" />
    <g
       id="g10766" />
    <g
       id="g10768" />
    <g
       id="g10770" />
    <g
       id="g10772" />
    <g
       id="g10774" />
    <g
       id="g10776" />
    <g
       id="g10778" />
    <g
       id="g10780" />
    <g
       id="g10782" />
    <g
       id="g10784" />
    <g
       id="g10786" />
    <g
       id="g10788" />
    <g
       id="g10790" />
    <g
       id="g10792" />
    <g
       id="g10794" />
    <g
       id="g10796" />
    <g
       id="g10798" />
    <g
       id="g10800" />
    <g
       id="g10802" />
    <g
       id="g10804" />
    <g
       id="g10806" />
    <g
       id="g10808" />
    <g
       id="g10810" />
    <g
       id="g10812" />
    <g
       id="g10814" />
    <g
       id="g10816" />
    <g
       id="g10818" />
    <g
       id="g10820" />
    <g
       id="g10822" />
    <g
       id="g10824" />
    <g
       id="g10826" />
    <g
       id="g10828" />
    <g
       id="g10830" />
  </g>
</svg>
