<?xml version="1.0" standalone="no"?>
 <!DOCTYPE svg PUBLIC "-//W3C//DTD SVG 1.1//EN" 
 "http://www.w3.org/Graphics/SVG/1.1/DTD/svg11.dtd"> 
<svg
  xmlns:svg="http://www.w3.org/2000/svg"
  xmlns="http://www.w3.org/2000/svg"
  xmlns:xlink="http://www.w3.org/1999/xlink"
  version="1.1"
  width="28.102560cm" height="10.363200cm" viewBox="0 0 110640 40800">
<title>SVG Picture created as BKF CASE-brd.svg date 2021/08/24 09:39:29 </title>
  <desc>Picture generated by PCBNEW </desc>
<g style="fill:#000000; fill-opacity:1;stroke:#000000; stroke-opacity:1;
stroke-linecap:round; stroke-linejoin:round;"
 transform="translate(0 0) scale(1 1)">
</g>
<g style="fill:#000000; fill-opacity:0.0; 
stroke:#000000; stroke-width:-0.000393701; stroke-opacity:1; 
stroke-linecap:round; stroke-linejoin:round;">
</g>
<g style="fill:#000000; fill-opacity:0.0; 
stroke:#000000; stroke-width:19.685; stroke-opacity:1; 
stroke-linecap:round; stroke-linejoin:round;">
<path d="M15170.5 9.84291 A393.701 393.701 0.0 0 0 14776.8 403.544" />
<path d="M5867.36 403.544 A393.701 393.701 0.0 0 0 5473.66 9.84291" />
<circle cx="2822.35" cy="2823.2" r="1043.31" /> 
<path d="M2822 10
L5473 9
" />
<circle cx="37744.2" cy="37979.5" r="1043.31" /> 
<path d="M107822 40792 A2812.5 2812.5 0.0 0 0 110635 37979.5" />
<path d="M110635 2823.2 A2812.5 2812.5 0.0 0 0 107822 10.6957" />
<path d="M15170 9
L107822 10
" />
<path d="M14775 5204
L14776 403
" />
<path d="M9.84291 37979.5 A2812.5 2812.5 0.0 0 0 2822.35 40792" />
<path d="M5867 403
L5869 5204
" />
<path d="M107822 40791
L2822 40791
" />
<path d="M9 37979
L9 2823
" />
<circle cx="2822.35" cy="37979.5" r="1043.31" /> 
<circle cx="72900.5" cy="2823.2" r="1043.31" /> 
<circle cx="37744.2" cy="2823.2" r="1043.31" /> 
<path d="M2822.35 10.6957 A2812.5 2812.5 0.0 0 0 9.84291 2823.2" />
<circle cx="107822" cy="37979.5" r="1043.31" /> 
<circle cx="107822" cy="2823.2" r="1043.31" /> 
<circle cx="72900.5" cy="37979.5" r="1043.31" /> 
<path d="M110634 37979
L110634 2823
" />
<path d="M5869 5204
L4500 5204
" />
<path d="M14775 5204
L106144 5204
" />
<path d="M106144 5204
L106144 35598
" />
<path d="M4500 35598
L4500 5204
" />
<path d="M106144 35598
L4697 35598
" />
<path d="M4697 35598
L4500 35598
" />
<g >
</g>
<g >
</g>
<g >
</g>
<g >
</g>
<g >
</g>
<g >
</g>
<g >
</g>
<g >
</g>
<g >
</g>
<g >
</g>
<g >
</g>
<g >
</g>
<g >
</g>
<g >
</g>
<g >
</g>
<g >
</g>
<g >
</g>
<g >
</g>
<g >
</g>
<g >
</g>
<g >
</g>
<g >
</g>
<g >
</g>
<g >
</g>
<g >
</g>
<g >
</g>
<g >
</g>
<g >
</g>
<g >
</g>
<g >
</g>
<g >
</g>
<g >
</g>
<g >
</g>
<g >
</g>
<g >
</g>
<g >
</g>
<g >
</g>
<g >
</g>
<g >
</g>
<g >
</g>
<g >
</g>
<g >
</g>
<g >
</g>
<g >
</g>
<g >
</g>
<g >
</g>
<g >
</g>
<g >
</g>
<g >
</g>
<g >
</g>
<g >
</g>
<g >
</g>
<g >
</g>
<g >
</g>
<g >
</g>
<g >
</g>
<g >
</g>
<g >
</g>
<g >
</g>
<g >
</g>
<g >
</g>
<g >
</g>
<g >
</g>
<g >
</g>
<g >
</g>
<g >
</g>
<g >
</g>
<g >
</g>
<g >
</g>
<g >
</g>
<g >
</g>
<g >
</g>
<g >
</g>
<g >
</g>
<g >
</g>
<g >
</g>
<g >
</g>
<g >
</g>
<g >
</g>
<g >
</g>
<g >
</g>
<g >
</g>
<g >
</g>
<g >
</g>
<g >
</g>
<g >
</g>
<g >
</g>
<g >
</g>
<g >
</g>
<g >
</g>
<g >
</g>
<g >
</g>
<g >
</g>
<g >
</g>
<g >
</g>
<g >
</g>
<g >
</g>
<g >
</g>
<g >
</g>
<g >
</g>
<g >
</g>
<g >
</g>
</g> 
</svg>
