<?xml version="1.0" standalone="no"?>
 <!DOCTYPE svg PUBLIC "-//W3C//DTD SVG 1.1//EN" 
 "http://www.w3.org/Graphics/SVG/1.1/DTD/svg11.dtd"> 
<svg
  xmlns:svg="http://www.w3.org/2000/svg"
  xmlns="http://www.w3.org/2000/svg"
  xmlns:xlink="http://www.w3.org/1999/xlink"
  version="1.1"
  width="28.102560cm" height="10.363200cm" viewBox="0 0 110640 40800">
<title>SVG Picture created as BKF CASE-brd.svg date 2021/08/24 09:38:57 </title>
  <desc>Picture generated by PCBNEW </desc>
<g style="fill:#000000; fill-opacity:1;stroke:#000000; stroke-opacity:1;
stroke-linecap:round; stroke-linejoin:round;"
 transform="translate(0 0) scale(1 1)">
</g>
<g style="fill:#000000; fill-opacity:0.0; 
stroke:#000000; stroke-width:-0.000393701; stroke-opacity:1; 
stroke-linecap:round; stroke-linejoin:round;">
</g>
<g style="fill:#000000; fill-opacity:0.0; 
stroke:#000000; stroke-width:19.685; stroke-opacity:1; 
stroke-linecap:round; stroke-linejoin:round;">
<path d="M106144 5204
L106144 35597
" />
<path d="M4500 35597
L4500 5204
" />
<path d="M14775 5204
L106144 5204
" />
<circle cx="2822.35" cy="2822.95" r="1043.31" /> 
<path d="M5870 403
L5869 5204
" />
<path d="M9 37979
L9 2822
" />
<path d="M14775 5204
L14775 403
" />
<path d="M107822 40791.7 A2812.5 2812.5 0.0 0 0 110635 37979.2" />
<path d="M2822.35 10.4492 A2812.5 2812.5 0.0 0 0 9.84291 2822.95" />
<path d="M110635 2822.95 A2812.5 2812.5 0.0 0 0 107822 10.4492" />
<path d="M9.84291 37979.2 A2812.5 2812.5 0.0 0 0 2822.35 40791.7" />
<circle cx="72900.5" cy="37979.2" r="1043.31" /> 
<circle cx="72900.5" cy="2822.95" r="1043.31" /> 
<circle cx="107822" cy="37979.2" r="1043.31" /> 
<path d="M107822 40791
L2822 40791
" />
<path d="M15169 9
L107822 10
" />
<circle cx="107822" cy="2822.95" r="1043.31" /> 
<circle cx="37744.2" cy="37979.2" r="1043.31" /> 
<circle cx="2822.35" cy="37979.2" r="1043.31" /> 
<circle cx="37744.2" cy="2822.95" r="1043.31" /> 
<path d="M2822 10
L5476 9
" />
<path d="M110634 37979
L110634 2822
" />
<circle cx="3056.72" cy="6807.33" r="807.087" /> 
<circle cx="107588" cy="6807.33" r="807.087" /> 
<path d="M5870.42 403.544 A393.701 393.701 0.0 0 0 5476.72 9.84291" />
<path d="M15169.6 9.84291 A393.701 393.701 0.0 0 0 14775.9 403.544" />
<path d="M5869 5204
L4500 5204
" />
<path d="M4697 35597
L4500 35597
" />
<path d="M106144 35597
L4697 35597
" />
<g >
</g>
<g >
</g>
<g >
</g>
<g >
</g>
<g >
</g>
<g >
</g>
<g >
</g>
<g >
</g>
<g >
</g>
<g >
</g>
<g >
</g>
<g >
</g>
<g >
</g>
<g >
</g>
<g >
</g>
<g >
</g>
<g >
</g>
<g >
</g>
<g >
</g>
<g >
</g>
<g >
</g>
<g >
</g>
<g >
</g>
<g >
</g>
<g >
</g>
<g >
</g>
<g >
</g>
<g >
</g>
<g >
</g>
<g >
</g>
<g >
</g>
<g >
</g>
<g >
</g>
<g >
</g>
<g >
</g>
<g >
</g>
<g >
</g>
<g >
</g>
<g >
</g>
<g >
</g>
<g >
</g>
<g >
</g>
<g >
</g>
<g >
</g>
<g >
</g>
<g >
</g>
<g >
</g>
<g >
</g>
<g >
</g>
<g >
</g>
<g >
</g>
<g >
</g>
<g >
</g>
<g >
</g>
<g >
</g>
<g >
</g>
<g >
</g>
<g >
</g>
<g >
</g>
<g >
</g>
<g >
</g>
<g >
</g>
<g >
</g>
<g >
</g>
<g >
</g>
<g >
</g>
<g >
</g>
<g >
</g>
<g >
</g>
<g >
</g>
<g >
</g>
<g >
</g>
<g >
</g>
<g >
</g>
<g >
</g>
<g >
</g>
<g >
</g>
<g >
</g>
<g >
</g>
<g >
</g>
<g >
</g>
<g >
</g>
<g >
</g>
<g >
</g>
<g >
</g>
<g >
</g>
<g >
</g>
<g >
</g>
<g >
</g>
<g >
</g>
<g >
</g>
<g >
</g>
<g >
</g>
<g >
</g>
<g >
</g>
<g >
</g>
<g >
</g>
<g >
</g>
<g >
</g>
<g >
</g>
<g >
</g>
<g >
</g>
</g> 
</svg>
